<?xml version="1.0" standalone="no"?>
<!DOCTYPE svg PUBLIC "-//W3C//DTD SVG 20010904//EN"
 "http://www.w3.org/TR/2001/REC-SVG-20010904/DTD/svg10.dtd">
<svg version="1.0" xmlns="http://www.w3.org/2000/svg"
 width="400.000000pt" height="400.000000pt" viewBox="0 0 400.000000 400.000000"
 preserveAspectRatio="xMidYMid meet">
<metadata>
Created by potrace 1.14, written by Peter Selinger 2001-2017
</metadata>
<g transform="translate(0.000000,400.000000) scale(0.100000,-0.100000)"
fill="#000000" stroke="none">
<path d="M1810 3849 c-30 -4 -75 -10 -100 -13 -25 -4 -98 -20 -163 -36 -207
-53 -406 -142 -583 -260 -101 -68 -111 -75 -188 -140 -23 -19 -66 -55 -96 -80
-216 -178 -364 -392 -470 -682 -60 -164 -75 -269 -75 -528 0 -270 13 -394 66
-620 59 -252 162 -488 311 -710 153 -227 283 -330 527 -416 52 -19 117 -49
145 -67 181 -120 367 -183 623 -210 30 -4 46 -1 55 11 11 13 10 15 -8 10 -12
-3 -28 -2 -35 3 -7 4 -19 3 -25 -2 -8 -7 -14 -6 -19 1 -3 5 -11 10 -16 10 -6
0 -7 -4 -4 -10 3 -6 -1 -7 -9 -4 -9 3 -16 10 -16 16 0 5 -5 6 -10 3 -6 -3 -10
-2 -10 4 0 5 9 9 19 8 11 0 18 -4 16 -7 -5 -8 72 -6 81 3 4 4 13 2 21 -4 7 -7
24 -13 38 -14 21 -3 23 -1 12 15 -8 14 -15 16 -24 9 -14 -13 -29 -5 -43 21 -8
16 -7 19 10 17 12 -1 18 -7 16 -14 -3 -7 -1 -13 5 -13 19 0 5 33 -15 36 -29 4
-37 -5 -26 -26 6 -10 6 -21 2 -24 -5 -3 -16 11 -26 31 -13 28 -14 34 -3 30 8
-3 20 -2 26 3 9 5 4 7 -13 7 -34 1 -41 -12 -22 -39 26 -37 23 -40 -34 -26 -18
4 -44 37 -36 45 3 4 13 -2 21 -13 8 -11 14 -14 15 -6 0 7 -20 25 -45 40 -30
18 -43 32 -40 42 3 9 -1 7 -10 -4 -11 -14 -15 -16 -15 -5 0 12 -2 12 -10 -1
-6 -10 -10 -11 -10 -2 0 6 9 21 19 31 16 16 20 17 25 5 3 -8 10 -14 16 -14 6
0 9 4 5 9 -3 5 -1 12 4 16 6 3 8 -4 6 -16 -3 -15 0 -19 10 -15 8 3 17 1 20 -4
3 -5 -9 -7 -27 -5 -33 4 -33 4 -9 -9 42 -23 66 -3 35 29 -15 14 -14 15 9 11
14 -2 28 -2 31 2 10 9 66 11 66 2 0 -4 -14 -6 -30 -5 -17 1 -28 0 -25 -4 4 -3
15 -7 26 -7 32 -2 35 -4 20 -13 -10 -6 -23 -5 -35 2 -31 17 -49 18 -37 3 6 -7
7 -17 3 -21 -4 -5 -1 -4 7 0 11 6 13 4 8 -11 -7 -18 -6 -18 7 -1 14 18 32 24
21 7 -3 -6 -1 -10 4 -10 6 0 11 6 11 13 1 6 10 1 20 -12 11 -13 20 -18 20 -13
0 6 -4 14 -10 17 -15 9 -12 25 5 25 8 0 15 4 15 10 0 5 -8 7 -17 4 -14 -4 -15
-3 -5 4 8 5 13 13 13 18 0 5 16 9 37 8 20 -1 40 4 44 10 5 7 8 7 8 -3 0 -10 5
-10 25 3 25 16 25 16 13 -9 -8 -19 -14 -22 -20 -13 -4 7 -8 9 -8 3 0 -5 4 -16
9 -24 7 -11 10 -10 15 6 3 10 15 19 26 19 15 0 19 -5 14 -21 -5 -16 -4 -17 6
-8 17 16 5 44 -15 37 -23 -9 -18 4 6 17 15 8 19 8 15 0 -4 -6 -3 -11 3 -11 5
0 12 4 15 9 6 10 44 3 62 -10 6 -5 14 -5 19 -1 4 4 4 -4 0 -18 -7 -25 -7 -25
15 3 12 15 25 26 28 23 2 -3 -1 -12 -7 -20 -10 -11 -10 -19 -1 -33 10 -16 10
-15 5 4 -5 17 -3 22 8 17 8 -3 18 0 22 5 3 6 11 9 16 6 13 -9 11 -25 -3 -22
-8 1 -13 -8 -13 -23 0 -15 5 -24 13 -23 13 3 16 -9 5 -20 -3 -4 -12 -2 -20 5
-7 6 -15 9 -17 7 -2 -2 9 -14 25 -27 l28 -23 18 21 c10 11 21 20 26 20 5 0 4
-6 -2 -13 -8 -10 -7 -14 4 -14 7 0 13 5 12 11 -1 6 4 10 11 9 6 -2 12 2 12 8
0 8 6 7 17 -2 10 -8 14 -9 10 -2 -5 8 -1 11 13 8 13 -3 18 0 14 7 -4 7 -3 8 4
4 22 -14 34 6 13 20 -20 15 -19 41 3 56 7 5 7 8 -2 8 -7 0 -16 -8 -19 -17 -4
-10 -14 -23 -22 -30 -9 -7 -12 -13 -6 -13 5 0 -1 -7 -13 -16 -22 -15 -25 -15
-45 3 -14 12 -17 13 -9 2 10 -13 8 -18 -13 -29 -14 -7 -25 -17 -25 -22 0 -5
-5 -6 -10 -3 -8 5 -7 11 0 20 13 16 4 39 -11 30 -5 -4 -9 3 -9 15 0 12 4 19 9
15 16 -9 24 15 10 31 -14 17 -20 76 -7 68 5 -3 15 0 23 6 8 7 15 8 15 3 0 -5
9 -9 20 -10 11 -1 18 2 15 8 -9 14 1 11 14 -4 12 -15 12 -14 -47 -20 -35 -4
-38 -8 -23 -34 8 -16 11 -15 30 7 24 29 28 15 5 -18 -15 -21 -11 -48 6 -37 4
3 10 -2 14 -10 6 -17 26 -20 26 -4 0 5 -4 8 -9 5 -5 -3 -12 1 -15 10 -3 8 -10
12 -16 9 -16 -10 -12 11 5 25 8 7 15 21 15 32 0 10 5 16 10 13 6 -4 8 -10 6
-14 -3 -4 20 -7 51 -7 39 0 58 -4 61 -13 3 -8 0 -11 -7 -7 -7 5 -9 1 -4 -10 4
-11 3 -15 -5 -10 -16 10 -25 -13 -12 -30 10 -11 16 -12 26 -3 10 8 14 8 14 0
0 -6 8 -3 19 6 10 10 18 23 17 28 -1 6 5 9 12 7 8 -1 11 1 8 6 -3 5 5 8 18 7
13 -2 29 1 37 7 10 7 6 8 -14 5 -17 -3 -25 -1 -20 4 13 13 55 20 48 8 -4 -5
-1 -9 4 -9 10 0 15 14 12 32 0 5 4 8 11 8 6 0 3 6 -8 14 -16 12 -17 17 -6 28
11 11 12 10 7 -3 -5 -13 -1 -17 19 -15 24 1 25 2 9 13 -9 7 -14 14 -10 14 12
2 22 6 40 14 15 6 16 10 5 16 -10 7 -10 9 0 10 6 1 17 3 22 4 6 1 16 3 23 4 8
1 8 4 -3 10 -8 6 -18 7 -24 4 -5 -3 -6 -1 -2 5 5 8 2 10 -8 6 -19 -7 -21 7 -4
24 8 8 8 12 1 12 -14 0 -25 -29 -16 -42 4 -7 1 -8 -7 -3 -9 5 -11 4 -6 -4 5
-7 2 -10 -6 -9 -7 2 -12 -3 -10 -10 1 -8 -2 -11 -9 -6 -8 5 -9 3 -4 -6 6 -9 4
-11 -5 -5 -8 5 -11 4 -6 -3 3 -6 -1 -9 -11 -7 -10 1 -24 -3 -32 -9 -12 -9 -13
-8 -6 4 6 12 6 13 -6 2 -12 -11 -12 -14 1 -22 8 -5 13 -10 10 -11 -3 0 -13 -2
-22 -4 -21 -4 -22 0 -9 24 8 13 5 17 -12 18 -12 0 -16 -1 -9 -4 6 -3 12 -9 12
-14 0 -6 -5 -7 -12 -3 -7 5 -8 3 -3 -6 6 -9 4 -11 -6 -5 -8 4 0 -4 16 -19 17
-14 34 -25 40 -26 5 0 -6 -11 -25 -24 -39 -26 -58 -25 -23 2 17 13 20 21 13
32 -9 13 -11 13 -19 0 -5 -8 -8 -17 -5 -21 2 -4 0 -10 -6 -14 -5 -3 -10 -1
-10 4 0 6 -5 11 -11 11 -5 0 -7 -4 -4 -10 7 -11 -8 -14 -18 -4 -10 10 4 33 17
28 7 -3 19 3 27 12 12 15 12 17 0 9 -8 -5 -12 -4 -9 1 4 5 -20 10 -53 10 -32
1 -56 -3 -53 -7 3 -5 9 -7 13 -5 4 3 13 1 20 -3 10 -6 9 -10 -4 -14 -10 -5
-14 -3 -9 5 4 7 3 8 -4 4 -19 -12 -14 -28 7 -21 11 3 22 1 25 -4 4 -6 -5 -9
-21 -7 -19 1 -28 7 -27 18 1 11 -5 15 -16 13 -17 -3 -36 22 -25 33 3 3 5 0 5
-6 0 -7 5 -12 11 -12 5 0 7 5 3 12 -4 6 -3 8 3 5 5 -3 22 0 37 8 14 8 24 10
21 5 -4 -6 1 -10 10 -10 9 0 14 4 10 9 -3 5 -1 12 4 15 5 4 12 2 16 -4 4 -6
11 -7 17 -4 6 4 5 10 -3 16 -10 6 -7 7 10 3 16 -5 21 -4 17 4 -5 7 -1 8 10 4
13 -5 15 -3 9 8 -7 11 -6 12 6 2 19 -16 40 2 32 26 -3 9 2 6 11 -7 10 -12 22
-20 27 -16 6 3 3 12 -8 20 -17 13 -17 14 1 7 15 -5 17 -3 11 8 -4 8 -5 11 0 7
4 -4 14 -3 22 4 8 6 13 7 12 2 -4 -24 3 -26 14 -4 13 26 44 35 39 12 -1 -8 3
-12 10 -9 7 2 12 9 11 15 -1 5 5 9 15 7 9 -1 23 2 30 8 8 6 12 6 12 -2 0 -6
-5 -11 -12 -11 -16 0 -1 -13 18 -16 10 -2 14 3 10 11 -3 8 0 17 6 21 6 4 8 3
5 -3 -4 -6 1 -17 10 -24 15 -12 16 -12 10 3 -3 10 -1 20 5 24 7 4 8 3 4 -4 -4
-7 -2 -12 5 -12 8 0 6 -6 -4 -18 -10 -10 -14 -22 -10 -27 5 -4 2 -5 -5 -1 -7
4 -10 12 -7 17 4 5 1 9 -4 9 -6 0 -11 -7 -11 -15 0 -19 -16 -20 -27 -1 -7 12
-10 12 -21 0 -7 -8 -10 -15 -7 -15 3 -1 10 -3 15 -4 6 -1 14 -3 19 -4 5 0 12
-9 15 -18 6 -16 6 -16 -12 0 -10 9 -22 14 -25 11 -4 -4 1 -13 11 -20 15 -11
13 -12 -15 -9 -29 4 -31 2 -28 -23 2 -15 2 -21 -1 -14 -8 18 -24 4 -18 -16 5
-14 4 -14 -4 -3 -6 8 -9 23 -7 33 3 11 -1 18 -7 16 -6 -2 -12 -16 -14 -31 -1
-15 1 -25 5 -23 4 3 8 -1 8 -9 0 -10 -4 -11 -11 -6 -12 10 -50 -11 -40 -22 3
-3 -3 -8 -14 -11 -11 -4 -32 -18 -48 -31 -21 -18 -30 -21 -36 -12 -7 11 -9 10
-12 -12 0 -5 -5 -13 -10 -18 -5 -5 -6 -3 -2 4 4 7 3 13 -2 13 -6 0 -12 -7 -16
-15 -3 -9 -12 -12 -22 -8 -12 4 -15 3 -10 -6 4 -6 4 -10 -1 -9 -4 1 -18 -3
-29 -10 -12 -6 -24 -8 -28 -5 -3 3 -6 1 -6 -6 0 -6 -6 -11 -12 -10 -26 3 -39
-1 -33 -10 3 -6 -4 -8 -15 -6 -11 2 -20 -2 -20 -8 0 -7 -4 -6 -10 3 -6 10 -10
11 -10 3 0 -7 -3 -12 -7 -12 -21 3 -33 -2 -27 -13 4 -7 3 -8 -5 -4 -6 4 -9 11
-6 15 8 13 -29 40 -50 37 -20 -3 -32 -46 -13 -46 5 0 7 8 4 18 -4 13 0 18 15
19 17 2 18 -1 8 -13 -10 -12 -10 -15 1 -12 7 2 14 -2 17 -9 3 -8 -3 -11 -16
-8 -12 2 -21 0 -21 -5 0 -4 -9 -6 -20 -3 -12 3 -20 0 -20 -8 0 -7 -3 -10 -6
-7 -3 4 0 16 6 28 8 15 8 20 1 16 -6 -4 -11 -2 -11 3 0 6 -5 11 -11 11 -5 0
-7 -5 -4 -10 3 -6 2 -10 -3 -10 -5 0 -14 -11 -22 -24 -10 -20 -19 -24 -46 -21
-21 2 -34 -2 -34 -9 0 -7 -3 -7 -8 -1 -9 12 -82 14 -82 2 0 -4 -4 -6 -9 -2 -5
3 -12 1 -16 -4 -5 -10 173 -7 220 3 178 38 311 85 447 159 123 67 201 125 297
220 79 77 93 86 166 111 200 68 355 178 530 377 141 160 274 419 325 629 12
52 26 109 30 125 10 43 11 271 0 325 -5 25 -16 84 -24 131 -9 47 -34 144 -56
215 -22 71 -45 145 -51 164 -25 83 -103 237 -164 326 -145 210 -408 471 -615
611 -233 158 -556 299 -796 349 -86 17 -279 25 -364 13z m154 -29 c5 -1 13 4
18 12 8 11 9 10 6 -1 -5 -20 -43 -24 -58 -6 -6 7 -19 11 -28 8 -14 -4 -14 -3
-3 5 10 7 21 6 35 -3 12 -8 25 -15 30 -15z m-117 -2 c0 -13 -1 -17 -4 -10 -7
19 -23 14 -16 -5 7 -19 5 -18 -17 11 -8 11 -10 17 -5 14 6 -4 17 -3 25 3 8 5
15 9 15 9 1 0 1 -10 2 -22z m218 1 c-4 -5 -12 -9 -18 -8 -9 0 -8 2 1 6 6 2 9
10 6 15 -4 7 -2 8 5 4 6 -4 9 -12 6 -17z m-276 -25 c-6 -8 -14 -14 -16 -14 -3
0 0 6 7 14 9 12 8 15 -9 13 -12 -1 -21 -6 -21 -11 0 -5 -3 -6 -6 -3 -4 4 -1
13 6 22 9 11 17 12 32 4 15 -8 17 -13 7 -25z m111 13 c0 -2 -8 -3 -18 -3 -10
0 -19 6 -19 13 0 8 6 9 19 2 10 -5 18 -11 18 -12z m127 6 c0 -9 -4 -10 -14 -2
-7 6 -13 12 -13 14 0 1 6 2 13 2 8 0 14 -6 14 -14z m100 0 c0 -8 -6 -9 -19 -2
-10 5 -18 11 -18 12 0 2 8 3 18 3 10 0 19 -6 19 -13z m-400 -16 c1 -12 -3 -17
-12 -13 -8 3 -17 1 -20 -4 -4 -6 -12 -10 -18 -10 -8 0 -8 3 2 9 8 5 9 11 3 15
-6 4 -15 -1 -20 -11 -5 -9 -17 -18 -26 -19 -9 -1 -14 2 -10 7 9 15 -13 10 -26
-6 -9 -11 -16 -13 -24 -5 -13 13 -29 13 -21 1 3 -6 -4 -8 -16 -6 -11 2 -33 -3
-47 -11 -26 -15 -26 -15 -7 1 11 9 19 20 18 24 -1 4 8 7 20 6 12 -1 29 1 38 6
9 5 21 3 27 -3 8 -8 13 -7 18 6 6 16 8 16 25 0 20 -18 27 -6 9 12 -8 8 -2 10
17 8 15 -1 28 -3 28 -4 0 -1 9 -3 20 -5 19 -4 19 -3 1 10 -18 14 -18 14 1 12
11 0 20 -9 20 -20z m-262 -46 c-3 -6 -11 -11 -16 -11 -5 0 -4 6 3 14 14 16 24
13 13 -3z m-44 -15 c-13 -16 -54 -29 -45 -15 3 5 12 9 20 9 8 0 14 5 14 10 0
6 5 10 11 10 8 0 8 -4 0 -14z m-120 -49 c-10 -9 -11 -8 -5 6 3 10 9 15 12 12
3 -3 0 -11 -7 -18z m369 -5 c0 9 3 9 10 -2 9 -13 10 -13 10 0 0 9 3 11 8 5 11
-15 32 -17 32 -3 0 6 6 3 14 -8 8 -10 18 -16 22 -11 4 4 2 7 -4 7 -7 0 -12 5
-12 12 0 9 3 9 12 0 8 -8 15 -9 25 -1 10 9 13 8 13 -2 0 -11 2 -11 10 1 6 10
10 11 10 3 0 -15 21 -13 32 2 5 6 8 6 8 -1 0 -7 13 -11 35 -8 19 1 36 0 39 -4
2 -4 -14 -7 -37 -6 -23 0 -46 -2 -52 -6 -13 -8 -27 -7 -42 3 -16 10 -36 -1
-27 -15 4 -6 0 -6 -13 1 -11 6 -23 7 -27 4 -3 -4 -15 -7 -25 -8 -13 -1 -17 3
-13 14 4 12 0 11 -18 -4 -13 -11 -20 -15 -17 -8 5 8 0 11 -13 10 -11 -1 -20
-5 -20 -9 0 -4 -6 -7 -12 -5 -7 1 -12 -4 -10 -10 3 -20 -15 -15 -23 5 -6 15
-8 15 -25 -6 -18 -22 -19 -22 -25 -2 -4 11 -15 20 -26 20 -16 0 -19 -5 -14
-22 4 -16 4 -19 -3 -9 -5 7 -14 11 -20 7 -6 -3 -13 -2 -17 3 -3 5 -14 9 -24 8
-19 -1 -21 -20 -6 -50 4 -6 0 -4 -8 6 -8 9 -17 17 -20 17 -4 0 -4 -8 -1 -17 5
-17 5 -17 -6 0 -6 9 -16 15 -21 11 -6 -3 -5 -12 3 -22 12 -15 11 -16 -4 -3
-10 7 -19 11 -19 7 -1 -3 -2 -10 -3 -15 0 -5 -4 -12 -8 -16 -12 -12 -2 23 11
39 7 9 9 16 3 16 -5 0 -15 -7 -22 -15 -7 -8 -16 -12 -21 -9 -11 6 -12 -8 -1
-22 4 -5 0 -1 -10 8 -18 20 -33 24 -22 6 4 -7 3 -8 -5 -4 -6 4 -14 0 -17 -8
-7 -18 -30 -21 -39 -6 -4 6 1 7 11 3 13 -5 15 -3 9 7 -5 8 -4 11 2 7 6 -4 16
0 23 9 7 8 19 13 26 10 7 -3 15 2 18 11 4 8 13 13 21 9 8 -3 15 0 15 6 0 6 3
8 7 5 3 -4 12 -2 20 4 7 6 13 8 13 4 0 -4 7 -2 15 5 8 6 18 9 23 7 4 -3 14 -2
22 3 9 5 19 5 27 -2 11 -8 12 -7 7 7 -6 14 -3 16 14 10 12 -3 22 -2 22 3 0 5
25 8 56 7 30 0 57 3 60 7 3 4 14 3 25 -2 14 -8 19 -7 19 2z m357 -8 c-8 -8
-48 -13 -43 -6 2 4 14 8 26 9 12 1 20 0 17 -3z m38 -4 c-3 -5 -12 -10 -18 -10
-7 0 -6 4 3 10 19 12 23 12 15 0z m-615 -50 c0 -5 -4 -10 -10 -10 -5 0 -10 5
-10 10 0 6 5 10 10 10 6 0 10 -4 10 -10z m30 -20 c0 -5 -2 -10 -4 -10 -3 0 -8
5 -11 10 -3 6 -1 10 4 10 6 0 11 -4 11 -10z m725 -3 c11 -2 40 -8 65 -12 167
-26 427 -113 615 -207 202 -100 267 -149 371 -278 190 -237 311 -437 369 -615
23 -72 28 -95 42 -197 9 -68 10 -253 1 -298 -23 -119 -91 -323 -119 -357 -6
-7 -7 -18 -3 -25 4 -7 4 -10 -1 -6 -6 6 -115 -145 -115 -159 0 -2 -9 -13 -19
-24 -17 -18 -189 -262 -216 -307 -5 -9 -18 -25 -28 -36 -10 -11 -15 -26 -12
-34 2 -7 1 -11 -4 -8 -4 3 -28 -18 -52 -47 -136 -163 -182 -197 -356 -263
-118 -45 -363 -124 -383 -124 -11 0 -82 31 -158 69 -143 71 -271 117 -298 107
-8 -3 -12 -2 -9 4 3 6 -4 10 -15 10 -23 0 -115 24 -165 43 -16 6 -95 46 -174
89 -79 44 -145 77 -148 74 -5 -4 33 -46 42 -46 3 0 10 0 16 0 5 0 7 -4 4 -10
-3 -5 -11 -10 -16 -10 -6 0 -8 4 -5 8 3 5 -1 9 -9 9 -11 0 -12 -3 -3 -14 6 -8
17 -12 24 -9 7 3 16 -4 19 -15 4 -11 11 -16 17 -13 7 5 9 1 5 -9 -3 -10 -2
-17 2 -17 19 0 19 29 0 35 -10 4 -19 14 -18 23 0 11 2 12 6 4 2 -6 10 -9 15
-6 7 5 8 2 3 -6 -6 -10 -4 -12 8 -7 11 4 20 -1 27 -13 6 -11 16 -17 25 -14 8
4 15 2 15 -4 0 -12 -18 -11 -38 2 -12 7 -12 4 -2 -14 7 -13 15 -19 19 -14 3 5
15 11 25 12 17 3 18 2 7 -12 -8 -9 -21 -16 -30 -17 -9 0 -11 -3 -4 -5 6 -3 23
2 36 11 22 14 26 14 40 1 12 -12 17 -13 21 -3 4 6 4 2 2 -11 -4 -20 -2 -21 11
-10 14 11 15 10 9 -10 -5 -14 -3 -22 4 -22 6 0 9 4 5 9 -18 29 65 6 87 -24 4
-5 8 -6 8 -2 0 5 7 1 16 -7 8 -9 22 -16 30 -16 8 0 14 -7 14 -16 0 -8 5 -12
10 -9 6 3 10 0 10 -7 0 -9 3 -9 10 2 8 13 10 13 10 -2 0 -12 5 -15 17 -11 11
4 14 3 9 -5 -4 -7 -1 -12 7 -12 21 0 98 -36 91 -42 -3 -3 6 -15 20 -26 14 -10
22 -22 18 -26 -3 -4 2 -4 12 0 17 7 17 8 -4 19 -20 11 -20 12 -4 26 15 12 16
12 9 0 -6 -11 -3 -13 13 -9 16 5 19 2 14 -11 -5 -13 -3 -14 9 -4 8 7 25 10 37
6 18 -4 20 -9 11 -24 -8 -15 -6 -21 6 -26 13 -4 14 -7 3 -14 -8 -5 -17 -1 -25
14 -16 28 -16 40 -1 31 7 -4 8 -3 4 4 -4 7 -11 12 -17 12 -13 0 -11 -34 3 -48
8 -8 8 -15 0 -25 -9 -11 -8 -14 3 -14 8 0 12 4 10 8 -6 8 43 5 51 -4 4 -3 -2
-6 -12 -6 -18 0 -59 -8 -59 -11 0 -1 -10 -3 -22 -6 -15 -2 -27 3 -35 16 -7 11
-16 20 -21 20 -4 0 0 -11 9 -25 9 -14 15 -25 13 -26 -34 -7 -45 -5 -57 9 -12
15 -13 15 -9 0 9 -27 -5 -30 -32 -6 l-25 23 18 -30 c11 -16 15 -27 11 -23 -4
4 -14 0 -21 -10 -21 -27 -16 -34 11 -16 14 9 28 14 32 10 3 -3 1 -6 -6 -6 -7
0 -11 -6 -8 -14 4 -10 -3 -13 -24 -11 -18 2 -26 -1 -22 -8 4 -6 1 -7 -7 -2 -9
5 -11 4 -6 -3 5 -8 1 -10 -10 -5 -14 5 -16 3 -11 -13 7 -19 7 -19 -8 0 -8 11
-15 15 -15 9 0 -7 4 -14 10 -18 5 -3 7 -12 4 -19 -3 -8 4 -16 15 -19 12 -3 18
-1 15 4 -3 5 2 12 10 15 9 3 14 10 11 14 -2 4 4 15 15 25 11 10 20 13 20 7 0
-6 -5 -14 -10 -17 -5 -3 -10 -12 -10 -18 0 -7 9 -1 20 13 11 14 17 31 15 38
-3 8 0 12 7 9 7 -2 12 -14 11 -26 -2 -11 2 -21 7 -21 6 0 9 3 9 8 -3 20 2 25
12 12 9 -13 10 -13 6 2 -7 20 17 42 37 35 10 -4 13 -1 9 8 -4 12 -9 12 -26 3
-12 -6 -24 -12 -27 -12 -3 -1 -4 -5 -2 -9 1 -5 -3 -7 -10 -5 -6 2 -14 11 -16
19 -3 8 -1 11 3 7 5 -4 14 -3 20 2 7 6 28 12 46 13 19 2 43 8 54 14 22 11 48
6 39 -8 -3 -5 0 -9 5 -9 6 0 11 7 11 16 0 8 5 12 10 9 6 -4 7 -11 4 -17 -5 -7
-2 -8 6 -3 9 6 12 4 8 -7 -4 -8 0 -15 7 -15 11 0 11 6 -1 29 -8 15 -12 28 -9
28 12 0 20 -5 18 -12 -2 -4 4 -5 12 -2 8 4 12 11 8 18 -3 6 -3 8 2 4 4 -4 15
-2 23 5 13 10 14 8 8 -13 -5 -17 -4 -20 2 -12 5 8 13 13 18 12 5 -1 10 4 12
12 2 9 0 8 -8 -2 -8 -10 -10 -11 -8 -2 2 8 7 13 12 12 5 -1 13 4 17 12 7 10 9
10 9 0 0 -10 5 -10 23 -1 21 12 21 11 7 -6 -11 -14 -11 -17 -1 -11 7 5 26 10
42 11 26 2 34 -5 30 -27 -2 -13 6 -9 20 9 10 11 10 14 2 9 -7 -4 -13 -3 -13 3
0 13 62 2 72 -13 5 -7 8 -7 8 2 0 14 44 12 57 -3 4 -4 2 -5 -4 -1 -7 4 -13 3
-13 -2 0 -9 -34 -23 -44 -19 -2 1 -12 -5 -22 -14 -11 -9 -29 -15 -41 -14 -12
1 -20 -2 -17 -6 2 -4 -5 -13 -17 -19 -17 -9 -20 -9 -14 0 4 7 -4 5 -18 -4 -39
-26 -88 -37 -104 -24 -10 8 -12 7 -8 -4 5 -12 -6 -19 -47 -29 -71 -18 -70 -18
-93 0 -18 15 -19 15 -7 -1 14 -17 1 -34 -18 -23 -5 3 -10 2 -10 -2 0 -5 -8 -9
-17 -9 -10 -1 -36 -3 -58 -5 -39 -4 -40 -3 -38 26 2 21 0 26 -6 16 -5 -8 -8
-23 -5 -34 2 -15 -1 -18 -16 -14 -11 3 -18 2 -16 -2 3 -4 -11 -8 -30 -8 -19
-1 -34 3 -34 9 0 5 -7 2 -16 -7 -13 -13 -19 -14 -25 -4 -4 7 -5 17 -2 22 3 5
9 4 13 -2 4 -7 11 -2 18 14 9 20 9 24 1 19 -8 -5 -9 -3 -4 6 5 8 4 11 -1 7 -5
-3 -10 3 -10 13 0 10 4 17 7 14 4 -2 10 0 14 5 3 6 12 8 19 5 8 -3 17 -1 21 5
3 7 0 8 -9 5 -10 -4 -16 -1 -16 7 0 7 3 9 6 6 12 -11 46 14 40 29 -4 10 -2 13
7 8 6 -4 9 -3 5 1 -14 15 -61 14 -82 -1 -25 -17 -14 -19 15 -1 17 10 23 9 26
-1 3 -6 10 -9 16 -5 7 4 6 -1 -2 -10 -15 -19 -22 -22 -19 -8 2 5 -1 8 -7 7 -5
0 -9 -4 -8 -8 3 -9 -23 -5 -50 7 -10 4 -21 5 -24 1 -4 -3 1 -6 10 -6 11 0 14
-5 11 -15 -5 -13 -9 -13 -22 -3 -10 8 -13 9 -9 1 4 -6 4 -13 0 -16 -5 -2 -3
-2 4 -1 8 2 11 -7 8 -27 -4 -34 8 -38 23 -6 l10 22 -1 -22 c-1 -12 -7 -25 -14
-27 -7 -3 -10 -16 -7 -33 3 -21 2 -24 -6 -13 -5 8 -10 10 -10 4 0 -6 -16 -11
-35 -11 -19 0 -32 4 -29 9 3 5 10 6 15 3 5 -4 9 -1 9 4 0 6 5 11 11 11 5 0 7
-4 4 -10 -3 -5 0 -7 7 -5 8 3 14 15 15 26 2 18 0 19 -14 7 -12 -9 -15 -10 -9
0 4 7 2 12 -5 12 -7 0 -4 6 7 14 10 8 15 18 11 23 -5 4 -16 -3 -26 -16 -12
-15 -21 -20 -25 -13 -12 20 -37 2 -30 -22 5 -16 4 -18 -6 -9 -7 6 -19 9 -28 6
-8 -4 -13 -2 -9 3 3 5 -3 10 -13 10 -18 0 -18 -1 -2 -17 13 -13 20 -14 32 -5
13 10 13 9 1 -7 -10 -13 -17 -15 -27 -6 -9 8 -14 8 -14 1 0 -6 -13 -9 -30 -7
-16 2 -30 -1 -30 -6 0 -6 -5 -7 -12 -3 -6 4 -30 8 -52 8 -36 1 -41 4 -40 24 1
13 -1 20 -5 17 -3 -4 -6 -12 -6 -18 -1 -16 -27 -11 -107 20 -38 15 -65 30 -61
36 3 6 2 7 -4 4 -12 -7 -93 31 -93 44 0 5 -3 8 -7 7 -16 -3 -43 15 -36 25 3 5
1 7 -5 3 -9 -5 -77 39 -119 78 -6 6 -32 28 -57 49 -25 22 -43 44 -39 49 3 6 2
8 -4 5 -5 -3 -29 13 -52 37 -25 26 -38 46 -32 49 7 3 6 4 -1 3 -7 -2 -28 13
-46 33 -32 35 -42 58 -19 45 7 -4 9 -3 4 2 -5 5 -10 7 -12 4 -6 -10 -46 50
-40 60 4 6 1 9 -6 8 -7 -2 -17 6 -23 17 -6 11 -25 40 -41 65 -45 68 -56 91
-48 103 4 6 1 7 -7 2 -10 -6 -12 -3 -7 14 3 13 3 20 0 17 -8 -8 -33 13 -33 28
0 6 5 4 10 -4 5 -8 10 -10 10 -5 0 6 -9 18 -20 28 -12 10 -18 22 -15 27 3 6 2
10 -4 10 -10 0 -27 38 -23 53 1 4 -3 7 -9 7 -5 0 -7 5 -4 10 3 6 1 10 -6 10
-8 0 -8 4 1 15 7 9 10 18 6 22 -3 3 -6 1 -6 -5 0 -7 -5 -12 -10 -12 -6 0 -9 3
-8 8 1 7 -17 56 -29 75 -4 6 -1 7 8 2 10 -6 9 -2 -2 11 -16 18 -26 42 -34 81
-2 10 -8 29 -13 43 -5 14 -10 28 -11 32 -1 4 -4 13 -6 20 -2 7 -6 27 -9 43 -2
17 -5 30 -6 30 -4 0 -19 92 -26 160 -3 22 -7 113 -10 203 -5 139 -3 167 10
188 12 17 13 24 4 24 -9 0 -9 3 -1 11 6 6 9 18 6 25 -3 8 -2 22 2 32 5 9 10
26 12 37 2 11 6 27 10 35 3 8 7 18 8 23 2 4 3 8 5 10 1 1 3 13 5 27 2 14 5 32
7 40 25 87 31 106 36 115 4 6 7 12 8 15 1 3 5 20 9 38 4 18 12 35 16 38 5 3 7
10 4 15 -4 5 -2 9 3 9 5 0 9 6 10 13 3 38 31 107 43 107 5 0 6 6 3 14 -3 7 2
21 11 30 9 9 13 16 8 16 -4 0 -1 6 7 13 8 7 17 21 19 32 5 29 20 55 32 55 6 0
7 5 4 10 -3 6 1 13 9 16 9 3 13 10 10 15 -3 5 0 9 5 9 17 0 13 -18 -6 -29 -14
-8 -15 -10 -3 -11 13 0 13 -1 0 -10 -11 -7 -11 -10 -2 -10 7 0 10 -5 6 -11 -4
-8 -9 -7 -15 2 -4 7 -11 10 -15 6 -4 -4 1 -14 12 -22 18 -14 18 -14 -3 -10
-14 2 -20 -1 -19 -11 4 -23 20 -34 36 -24 12 8 10 10 -8 10 -13 0 -21 4 -17
10 3 5 13 6 22 3 12 -5 15 -2 10 10 -3 9 -3 17 2 17 5 0 12 17 16 37 6 35 36
96 80 168 10 17 47 55 82 85 157 136 171 143 447 235 206 68 361 110 455 124
58 9 441 8 476 -2z m-998 -54 c-4 -3 -1 -13 6 -21 8 -11 8 -14 0 -9 -6 4 -14
1 -17 -5 -2 -7 -3 -2 -1 12 4 32 4 30 12 30 3 0 3 -3 0 -7z m83 -5 c0 -4 -4
-8 -9 -8 -6 0 -12 4 -15 8 -3 5 1 9 9 9 8 0 15 -4 15 -9z m-207 -85 c-3 -7 -6
-13 -8 -13 -2 0 -5 6 -8 13 -3 8 1 14 8 14 7 0 11 -6 8 -14z m-550 -498 c-3
-9 -8 -14 -10 -11 -3 3 -2 9 2 15 9 16 15 13 8 -4z m-162 -102 c-9 -7 -12 -13
-7 -13 5 0 2 -8 -7 -17 -15 -17 -17 -22 -17 -43 0 -5 -8 -14 -18 -19 -14 -7
-19 -6 -19 4 0 7 6 11 14 8 7 -3 13 0 13 6 0 6 -6 11 -12 12 -10 0 -10 2 0 6
6 2 9 10 6 15 -4 6 -3 9 2 6 5 -3 15 0 22 8 7 8 9 14 5 14 -4 0 -2 5 4 11 6 6
9 19 5 27 -5 14 -4 15 10 2 14 -13 14 -16 -1 -27z m116 1 c-3 -3 -12 -4 -19
-1 -8 3 -5 6 6 6 11 1 17 -2 13 -5z m-12 -32 c-10 -7 -17 -27 -18 -49 0 -6 -7
-9 -15 -6 -10 4 -10 8 -2 13 6 4 13 16 15 26 2 10 4 20 4 22 1 1 7 2 14 2 7 0
8 -3 2 -8z m-152 -89 c-4 -10 -11 -21 -17 -25 -5 -3 -11 -17 -13 -30 -2 -13
-8 -24 -13 -26 -6 -2 -10 -8 -10 -13 0 -6 4 -7 10 -4 6 3 7 -1 4 -9 -3 -9 -11
-16 -16 -16 -6 0 -8 -7 -4 -15 3 -8 2 -15 -2 -15 -4 0 -8 -8 -9 -17 -2 -25 -7
-46 -15 -59 -4 -5 -5 -19 -4 -30 2 -10 -1 -28 -7 -39 -6 -11 -12 -36 -13 -55
-1 -19 -3 -35 -4 -35 -3 0 -10 -52 -12 -86 -1 -14 -7 -26 -15 -26 -9 0 -10 4
-2 14 9 10 8 17 -2 30 -10 11 -10 14 -1 9 6 -4 12 -4 13 1 0 4 2 16 4 26 2 13
-1 17 -11 13 -9 -3 -12 -1 -9 4 3 5 8 19 10 31 2 11 7 30 11 41 5 15 3 19 -7
13 -8 -5 -11 -4 -6 1 5 5 14 9 20 9 5 0 12 7 14 15 3 11 2 11 -4 3 -6 -8 -14
-9 -23 -3 -13 8 -13 10 0 10 11 0 16 10 15 33 0 17 5 41 12 52 16 24 17 38 1
29 -7 -4 -8 -3 -4 5 4 6 12 8 18 5 8 -5 9 -1 5 10 -4 10 1 28 10 43 9 14 18
34 18 45 1 11 8 24 16 29 12 7 12 9 -1 9 -8 0 -2 9 15 20 36 24 36 24 28 3z
m113 -2 c-13 -15 -14 -20 -4 -24 9 -4 9 -6 1 -6 -21 -2 -25 20 -7 34 26 20 30
18 10 -4z m-16 -57 c-6 -6 -7 -13 -4 -16 3 -3 0 -9 -7 -14 -7 -4 -10 -3 -5 4
3 6 2 13 -4 17 -5 3 -10 1 -10 -4 0 -6 -5 -11 -11 -11 -8 0 -8 5 1 15 7 8 16
12 21 9 13 -8 11 10 -3 25 -11 11 -9 11 9 0 15 -9 19 -17 13 -25z m-18 -53
c-5 -3 -8 -14 -6 -23 1 -10 -2 -20 -7 -24 -5 -3 -6 -11 -2 -17 3 -7 -3 -3 -15
7 l-22 19 20 22 c11 12 17 25 13 29 -4 4 1 4 11 0 10 -4 13 -10 8 -13z m-26
-95 c1 -9 -4 -20 -13 -23 -12 -5 -12 -7 -1 -14 8 -5 9 -9 2 -9 -7 0 -10 -13
-9 -30 1 -16 -3 -41 -11 -54 -8 -17 -9 -28 -3 -32 6 -4 4 -13 -6 -24 -11 -12
-13 -20 -5 -25 6 -4 7 -12 2 -18 -4 -7 -8 -28 -7 -47 1 -39 -11 -73 -24 -65
-5 3 -9 -5 -10 -18 -1 -42 -4 -57 -13 -57 -5 0 -7 -4 -3 -9 3 -5 1 -12 -5 -16
-6 -4 -7 -12 -4 -18 4 -7 1 -6 -7 2 -11 11 -11 14 -1 18 10 4 10 8 0 21 -8 9
-8 13 -2 9 7 -4 14 0 18 8 3 8 0 14 -7 12 -7 -1 -10 5 -9 13 2 8 6 23 8 34 2
10 6 21 9 24 2 3 1 10 -5 16 -13 17 5 42 22 30 8 -5 5 -1 -5 9 -11 9 -15 17
-10 17 6 0 9 12 8 28 -1 15 2 32 7 39 6 7 7 16 4 21 -3 6 1 15 9 22 7 6 12 19
9 28 -3 9 2 6 11 -8 10 -16 14 -18 11 -6 -4 10 -1 25 6 34 11 13 9 14 -12 9
-14 -4 -19 -4 -11 -1 11 5 11 8 0 15 -11 7 -10 9 4 9 10 0 16 4 12 9 -3 5 -1
12 5 16 5 3 10 11 10 17 0 6 -7 5 -17 -3 -14 -12 -14 -10 2 14 19 30 37 31 41
3z m3425 -260 c0 -3 5 -20 10 -38 5 -18 12 -51 15 -73 2 -21 7 -41 9 -44 3 -2
-3 -14 -12 -25 -17 -20 -17 -20 1 -6 18 14 19 13 13 -2 -3 -10 -3 -20 2 -22 4
-3 8 -29 9 -58 2 -41 0 -49 -9 -38 -9 13 -10 13 -6 0 2 -8 12 -14 21 -14 13 2
14 -1 5 -12 -7 -8 -9 -27 -5 -45 4 -22 3 -28 -7 -23 -6 5 -5 0 3 -11 12 -15
12 -19 2 -23 -10 -3 -9 -9 5 -25 10 -11 12 -17 6 -13 -8 5 -13 1 -14 -11 -1
-10 -2 -27 -3 -38 0 -12 -7 -19 -15 -17 -11 2 -12 0 -4 -10 6 -7 10 -26 9 -43
-2 -23 -7 -30 -22 -28 -16 1 -17 0 -4 -10 17 -13 26 -42 11 -33 -5 4 -9 -2 -9
-11 2 -28 -12 -95 -25 -118 -6 -11 -12 -22 -12 -25 -8 -41 -18 -70 -26 -70 -5
0 -8 -3 -7 -7 3 -16 -15 -63 -24 -63 -6 0 -7 -7 -4 -15 3 -9 -1 -18 -9 -21 -8
-4 -12 -10 -9 -15 3 -5 0 -9 -6 -9 -6 0 -8 -4 -5 -10 3 -5 1 -10 -5 -10 -7 0
-10 -7 -6 -15 3 -8 1 -15 -4 -15 -6 0 -10 -7 -10 -15 0 -14 -13 -20 -34 -16
-5 1 -4 -4 3 -13 9 -11 9 -16 0 -22 -8 -5 -9 -3 -4 6 5 8 4 11 -3 6 -6 -4 -9
-13 -5 -21 3 -8 -1 -15 -8 -15 -7 0 -9 -3 -6 -6 4 -4 -1 -14 -11 -23 -10 -9
-25 -28 -35 -43 -10 -16 -24 -28 -31 -28 -8 0 -19 12 -24 28 -7 17 -11 21 -11
10 -1 -10 8 -27 19 -38 16 -16 17 -20 5 -20 -8 0 -14 -5 -12 -12 1 -7 -5 -13
-13 -13 -8 0 -14 -6 -13 -12 2 -7 -6 -11 -17 -10 -12 1 -18 7 -16 14 3 7 0 13
-5 13 -6 0 -9 -9 -6 -20 3 -12 -1 -24 -11 -30 -10 -5 -13 -10 -8 -10 5 0 18 7
28 17 10 9 18 12 18 7 0 -11 -61 -68 -72 -69 -4 0 -15 -10 -23 -23 -9 -12 -20
-20 -25 -17 -4 3 -11 -2 -14 -11 -4 -9 -9 -14 -12 -11 -3 3 -19 -9 -35 -26
-15 -18 -29 -26 -29 -19 0 6 3 12 8 12 4 0 13 9 20 21 10 15 10 24 2 34 -9 11
-8 20 4 37 9 12 16 18 16 13 0 -6 5 -3 10 5 9 13 13 11 31 -10 l21 -25 -15 25
c-10 17 -23 24 -37 22 -19 -2 -21 0 -11 12 7 8 19 12 27 9 17 -6 19 13 2 23
-7 4 -8 3 -4 -4 4 -7 -1 -10 -14 -7 -13 3 -18 0 -14 -7 5 -7 2 -8 -6 -3 -8 5
-11 4 -7 -2 4 -6 0 -13 -8 -16 -8 -4 -12 -15 -10 -27 3 -17 0 -20 -14 -15 -12
3 -21 0 -25 -10 -3 -9 -10 -13 -16 -10 -6 3 -7 0 -4 -9 4 -11 0 -14 -15 -11
-15 3 -19 0 -14 -13 4 -13 3 -14 -5 -3 -7 9 -12 10 -16 2 -4 -6 -2 -11 4 -11
6 0 8 -5 5 -10 -5 -8 -11 -7 -21 1 -11 9 -9 15 14 32 15 12 31 27 35 34 5 8
12 11 18 8 5 -4 9 1 9 9 0 10 6 13 18 9 9 -3 14 -3 10 1 -8 10 62 87 73 81 4
-3 10 4 14 15 3 11 12 20 19 20 7 0 19 11 26 25 7 14 18 25 23 25 5 0 4 -7 -3
-15 -10 -12 -9 -16 4 -21 18 -7 22 -25 5 -21 -6 1 -14 -5 -16 -13 -4 -13 -3
-13 6 0 6 8 11 11 11 5 0 -5 6 -3 13 4 10 10 8 15 -6 26 -11 8 -14 16 -8 19 6
4 8 12 5 19 -2 7 7 23 21 35 14 13 23 28 19 34 -4 6 -3 8 3 5 8 -5 47 47 48
64 0 4 9 15 20 25 12 11 14 15 5 9 -11 -7 -11 -5 3 11 9 11 14 24 10 27 -3 4
5 8 18 8 17 1 19 3 7 6 -14 4 -16 8 -7 24 5 11 15 17 22 13 9 -5 9 -3 0 6 -19
21 14 55 36 38 10 -8 9 -4 -3 10 -11 12 -15 22 -10 22 5 0 18 16 28 35 11 19
23 35 28 35 4 0 8 7 8 15 0 21 42 56 60 50 12 -5 12 -4 3 6 -10 10 -16 9 -29
-2 -16 -13 -16 -12 -5 9 6 12 16 22 22 22 5 0 9 6 8 13 -1 6 6 31 16 54 13 30
22 40 34 36 10 -3 12 -2 5 4 -17 12 -5 73 15 74 9 0 11 3 4 5 -10 5 -9 27 2
84 2 8 4 29 4 45 1 23 4 27 11 15 6 -9 10 -10 10 -3 0 6 -4 14 -8 17 -14 8 -7
101 7 98 7 -1 10 2 6 8 -3 6 -11 8 -16 5 -5 -4 -10 11 -10 32 -1 21 -2 50 -3
65 0 14 -4 30 -8 34 -4 4 -2 14 5 22 9 13 9 14 0 8 -9 -5 -13 -1 -13 13 0 10
6 22 13 24 7 3 5 6 -5 6 -10 1 -18 6 -18 12 0 5 4 7 10 4 7 -4 7 2 1 18 -6 14
-7 28 -4 31 7 6 15 2 14 -8z m-3609 -88 c-6 -6 -12 -6 -17 3 -6 8 -4 10 5 4 9
-5 10 -1 6 16 -6 21 -6 22 5 6 7 -13 8 -22 1 -29z m123 -60 c-1 -18 -7 -32
-13 -31 -5 1 -12 -13 -14 -31 -2 -23 0 -32 8 -29 7 2 15 0 19 -6 3 -6 1 -11
-4 -11 -6 0 -11 -5 -11 -11 0 -5 4 -7 10 -4 6 3 7 -1 4 -9 -3 -9 -10 -16 -15
-16 -5 0 -9 -5 -9 -11 0 -6 6 -9 13 -6 18 7 15 -32 -4 -44 -13 -8 -6 -13 14
-10 5 1 6 -3 2 -9 -3 -5 0 -10 7 -10 9 0 9 -3 -2 -10 -13 -9 -13 -10 0 -10 12
0 13 -2 1 -9 -7 -5 -10 -14 -7 -20 4 -6 12 -9 17 -6 5 4 9 1 9 -4 0 -6 -7 -11
-15 -11 -8 0 -15 5 -15 12 0 6 -3 8 -7 4 -5 -4 0 -13 10 -21 16 -11 16 -13 2
-19 -9 -3 -13 -2 -10 3 3 5 1 13 -5 16 -6 4 -8 16 -4 28 6 22 6 22 -9 2 -9
-11 -11 -22 -6 -23 6 -2 4 -11 -3 -20 -8 -10 -9 -13 -1 -9 7 5 10 -1 9 -18 -2
-13 0 -22 4 -20 4 3 6 -9 5 -25 -3 -32 9 -41 19 -14 4 10 2 13 -7 8 -7 -4 -7
-1 2 7 10 11 15 11 18 1 3 -6 10 -9 16 -6 9 5 9 4 0 -6 -6 -7 -9 -19 -6 -26 3
-9 -1 -14 -12 -14 -9 0 -13 -5 -10 -10 4 -6 13 -7 23 -1 14 7 17 5 17 -14 0
-16 -4 -21 -15 -17 -13 5 -13 3 -1 -11 11 -14 11 -20 1 -32 -9 -11 -9 -15 -1
-15 7 0 9 -5 5 -12 -4 -7 -3 -8 5 -4 6 4 9 12 6 17 -4 5 -1 9 4 9 6 0 11 -7
11 -15 0 -8 -5 -15 -11 -15 -5 0 -7 -5 -4 -10 4 -6 12 -7 18 -4 7 4 9 4 5 -1
-4 -4 -3 -14 2 -20 10 -12 3 -13 -45 -6 -5 0 -4 6 2 12 9 9 4 19 -19 41 -23
22 -28 31 -19 42 8 10 8 16 -2 25 -8 6 -13 21 -12 33 1 13 -3 26 -9 30 -8 6
-8 8 1 8 6 0 9 9 6 20 -3 11 -8 18 -12 16 -4 -3 -6 18 -6 45 1 28 -2 52 -5 54
-4 2 -6 33 -5 69 1 36 -2 63 -5 61 -4 -2 -7 2 -7 10 0 8 5 15 10 15 6 0 6 5 0
13 -12 16 -11 37 2 36 6 -1 9 -6 7 -13 -2 -6 0 -7 4 -3 5 4 9 18 9 30 0 12 6
32 13 45 7 12 10 22 6 22 -3 0 -1 7 6 15 17 20 17 20 15 -17z m3339 -305 c-1
-16 -3 -28 -4 -28 -1 0 -3 -17 -5 -39 -2 -21 -9 -42 -17 -47 -9 -6 -10 -9 -1
-9 10 0 10 -7 2 -27 -6 -16 -13 -37 -15 -48 -11 -66 -26 -105 -37 -98 -6 3 -7
1 -3 -6 4 -7 4 -20 0 -29 -4 -9 -8 -19 -8 -22 -5 -25 -30 -69 -37 -64 -5 3 -6
-2 -3 -10 4 -9 1 -16 -6 -16 -7 0 -10 -7 -6 -15 3 -8 1 -15 -4 -15 -6 0 -10
-7 -10 -15 0 -9 -7 -18 -15 -21 -8 -4 -13 -10 -10 -14 3 -5 0 -12 -6 -16 -8
-5 -9 -3 -4 7 5 8 4 11 0 6 -5 -4 -18 1 -29 10 -18 16 -17 15 2 -11 17 -22 20
-31 10 -37 -7 -5 -16 -3 -20 4 -4 7 -8 8 -8 1 0 -5 6 -16 13 -23 10 -12 9 -13
-7 -7 -17 6 -17 5 -5 -10 13 -16 12 -16 -7 -6 -16 9 -21 8 -21 -3 0 -8 5 -11
11 -7 6 3 3 -5 -6 -18 -9 -14 -21 -24 -26 -23 -5 1 -9 -5 -8 -15 1 -11 -5 -16
-18 -14 -14 3 -17 -1 -13 -12 4 -9 2 -16 -3 -16 -5 0 -28 -20 -51 -45 -31 -34
-45 -42 -51 -33 -6 10 -8 8 -8 -4 0 -10 -6 -17 -12 -15 -7 1 -12 -3 -11 -10 2
-8 -4 -10 -15 -6 -9 3 -14 2 -10 -2 8 -8 -29 -39 -47 -40 -5 -1 -9 -7 -7 -15
2 -8 0 -12 -4 -8 -4 4 -13 3 -21 -4 -7 -6 -16 -8 -20 -4 -9 9 28 46 40 39 6
-4 8 0 5 8 -3 9 5 25 19 39 13 13 31 36 39 52 8 15 19 28 25 28 6 0 9 6 6 14
-3 8 1 17 9 20 9 3 13 9 11 14 -6 8 21 49 28 45 3 -2 4 -2 3 0 -5 5 27 35 33
31 4 -2 6 4 5 14 -1 12 6 17 22 16 17 -1 20 2 13 9 -16 16 -13 29 15 62 15 17
23 24 19 16 -5 -9 -4 -12 3 -7 6 4 9 12 7 19 -3 7 -1 19 4 27 9 12 12 12 29
-3 15 -14 19 -14 19 -3 0 8 -4 14 -8 13 -7 -2 -9 3 -9 22 0 5 6 16 13 23 6 8
20 27 29 43 10 17 24 29 31 29 8 -1 14 6 13 15 -1 9 7 16 18 16 11 0 20 6 22
13 1 7 0 8 -3 2 -7 -15 -23 -12 -23 5 0 8 5 15 10 15 6 0 10 7 10 15 0 9 7 18
15 21 8 4 15 15 15 25 0 11 7 19 16 19 14 0 15 2 3 17 -13 15 -12 15 9 4 12
-6 22 -8 22 -2 0 5 -7 12 -16 15 -12 5 -14 10 -5 20 6 7 7 17 3 21 -4 5 -1 5
6 1 6 -4 12 -2 12 4 0 6 6 8 13 4 10 -6 10 -4 0 7 -17 17 -17 35 0 21 10 -8
12 -2 10 29 -1 21 2 39 8 39 5 0 8 3 8 8 -2 10 0 22 4 22 2 0 3 -12 1 -27z
m-3320 -49 c3 -8 -4 -19 -17 -25 -12 -7 -19 -8 -15 -4 4 4 3 15 -2 24 -6 13
-4 17 10 18 10 1 21 -5 24 -13z m-129 -44 c3 -5 1 -10 -4 -10 -6 0 -11 5 -11
10 0 6 2 10 4 10 3 0 8 -4 11 -10z m202 -245 c5 -4 2 -5 -6 0 -11 6 -13 4 -8
-11 7 -18 6 -18 -7 -1 -7 9 -19 17 -26 17 -7 0 2 -14 20 -32 18 -17 26 -29 18
-25 -33 12 -27 -22 8 -43 19 -12 32 -25 29 -30 -3 -4 -2 -16 1 -25 6 -13 9
-14 16 -3 6 9 7 5 3 -11 -5 -17 -4 -21 5 -16 9 6 9 3 1 -13 -9 -17 -8 -23 8
-31 10 -6 21 -7 25 -4 3 3 6 1 6 -6 0 -8 -6 -11 -16 -7 -10 4 -13 2 -9 -7 4
-6 0 -4 -8 6 -13 16 -15 16 -21 2 -3 -9 -2 -13 3 -10 5 3 13 0 16 -6 4 -5 13
-8 21 -5 7 3 18 -3 24 -14 9 -17 8 -19 -7 -13 -16 6 -17 5 -3 -13 26 -33 37
-43 43 -38 3 3 4 -3 3 -13 0 -10 5 -17 12 -15 8 1 11 -2 8 -7 -4 -5 -2 -12 3
-15 5 -4 7 -18 5 -33 -4 -22 -3 -24 9 -14 12 9 14 8 14 -6 0 -43 3 -49 14 -33
8 12 9 10 4 -9 -6 -18 -4 -22 6 -15 10 6 10 3 -1 -11 -14 -17 -13 -18 3 -12
12 5 16 3 11 -5 -5 -7 -2 -9 8 -6 12 5 14 -1 12 -34 -3 -36 -1 -38 14 -27 14
11 15 11 5 -1 -17 -19 -16 -31 1 -24 7 3 20 -2 29 -10 8 -8 16 -13 19 -11 2 2
5 -10 6 -28 l2 -32 -17 34 c-10 19 -25 37 -33 39 -11 4 -10 -1 4 -17 18 -19
18 -23 4 -37 -13 -13 -15 -13 -15 0 0 8 4 13 9 10 4 -3 8 -1 8 4 0 16 -13 21
-31 12 -12 -7 -20 -7 -24 0 -4 6 -3 10 2 9 20 -3 34 2 28 11 -4 6 -11 8 -16 5
-16 -11 -31 5 -19 20 7 8 7 15 1 19 -5 4 -12 -3 -16 -14 -3 -11 -11 -20 -16
-20 -6 0 -3 10 5 22 20 28 20 39 1 32 -9 -4 -18 1 -21 11 -5 13 -9 14 -15 3
-6 -10 -11 -10 -21 0 -9 9 -9 15 0 24 21 21 13 32 -8 13 -18 -17 -20 -17 -14
-2 6 16 -5 22 -29 18 -5 -1 -5 4 -1 11 17 26 13 39 -9 34 -12 -3 -16 -3 -9 0
6 3 12 10 12 15 0 6 -5 7 -12 3 -6 -4 -8 -3 -5 3 9 14 -19 37 -34 27 -7 -4 -9
-3 -5 4 3 6 1 14 -5 17 -5 4 -8 14 -4 23 3 8 0 19 -7 23 -9 6 -8 12 3 25 12
16 12 17 -3 11 -13 -4 -15 -2 -11 10 4 10 2 14 -4 10 -6 -4 -14 0 -17 9 -3 8
-2 12 3 9 5 -3 12 -1 16 5 3 5 3 10 -2 10 -24 1 -35 18 -24 39 7 12 8 21 2 21
-5 0 -12 -6 -14 -12 -4 -8 -6 -9 -6 -2 -1 7 10 19 24 28 14 9 25 22 25 28 0 7
-7 5 -17 -4 -27 -23 -43 -30 -43 -20 0 5 10 12 22 15 17 5 19 9 9 21 -10 12
-8 16 9 21 11 3 18 11 14 16 -3 5 -8 7 -12 5 -4 -2 -16 8 -26 22 -11 14 -15
22 -9 19 20 -12 22 21 3 38 -11 10 -17 22 -14 27 7 10 50 6 61 -7z m-52 -35
c3 -5 1 -10 -4 -10 -6 0 -11 5 -11 10 0 6 2 10 4 10 3 0 8 -4 11 -10z m69 -46
c6 -15 4 -15 -11 -3 -10 7 -20 15 -22 16 -2 2 3 3 11 3 9 0 19 -7 22 -16z
m-58 -33 c-9 -14 -26 -14 -26 0 0 5 5 7 12 3 8 -5 9 -1 4 12 -5 14 -4 16 5 7
6 -6 8 -16 5 -22z m234 -476 c0 -12 -19 -12 -23 0 -4 9 -1 12 9 8 7 -3 14 -7
14 -8z m104 -11 c3 -8 2 -12 -4 -9 -6 3 -10 10 -10 16 0 14 7 11 14 -7z m2556
-89 c-11 -12 -20 -27 -20 -33 0 -11 -13 -16 -32 -13 -5 0 -8 -3 -8 -9 0 -5 -7
-10 -15 -10 -8 0 -15 -4 -15 -8 0 -5 -13 -8 -30 -8 -18 0 -30 5 -30 13 0 13
20 14 30 1 3 -3 10 4 16 16 8 17 8 23 -2 23 -7 0 -11 -4 -9 -8 3 -4 -2 -9 -10
-12 -9 -4 -12 -1 -8 9 3 7 0 14 -6 14 -6 0 -10 -6 -8 -12 1 -7 -3 -12 -8 -11
-13 2 -14 -42 -1 -54 5 -4 7 -3 3 3 -3 6 0 11 8 11 20 0 19 -13 -1 -21 -9 -4
-24 -1 -32 6 -14 11 -15 10 -8 -7 4 -11 4 -16 0 -12 -4 4 -12 3 -18 -2 -6 -4
-21 -11 -33 -14 -20 -4 -21 -3 -12 14 5 10 12 19 15 19 3 0 2 -4 -1 -10 -3 -5
1 -10 10 -10 13 0 14 4 5 20 -10 18 -7 24 12 21 4 0 13 9 19 22 21 38 49 58
69 47 13 -7 21 -5 30 5 7 8 16 12 21 9 5 -3 6 1 3 9 -3 8 2 14 11 14 9 0 14
-6 11 -13 -3 -7 1 -15 9 -18 10 -4 11 2 5 24 -12 40 9 59 33 29 17 -21 17 -23
-3 -44z m-2653 40 c0 -8 -4 -12 -9 -9 -5 3 -6 10 -3 15 9 13 12 11 12 -6z m-9
-66 c-3 -8 -7 -3 -11 10 -4 17 -3 21 5 13 5 -5 8 -16 6 -23z m47 21 c3 -5 0
-7 -7 -5 -9 4 -14 -2 -15 -16 -2 -20 -1 -20 24 -4 14 10 23 13 20 7 -9 -13 39
-56 52 -47 6 3 11 1 11 -5 0 -7 -12 -9 -30 -6 -28 4 -30 2 -26 -17 3 -12 3
-16 0 -9 -3 6 -10 12 -15 12 -6 0 -7 -5 -3 -12 5 -7 3 -8 -5 -3 -9 5 -7 13 10
31 25 27 15 33 -13 7 -10 -9 -18 -11 -18 -6 0 6 7 13 15 17 8 3 15 10 15 16 0
7 -6 8 -19 0 -26 -14 -35 5 -22 48 2 6 21 1 26 -8z m60 0 c-3 -5 -1 -10 6 -10
7 0 10 -3 6 -6 -9 -9 -28 6 -22 17 4 5 8 9 11 9 3 0 2 -4 -1 -10z m65 -4 c0
-2 -9 -6 -20 -9 -11 -3 -18 -1 -14 4 5 9 34 13 34 5z m1120 -26 c0 -5 -5 -10
-11 -10 -5 0 -7 5 -4 10 3 6 8 10 11 10 2 0 4 -4 4 -10z m61 -7 c13 -16 12
-17 -3 -5 -9 8 -22 11 -28 7 -5 -3 -10 -1 -10 4 0 17 26 13 41 -6z m-1211 3
c0 -7 -40 -14 -44 -7 -3 4 6 8 20 9 13 1 24 0 24 -2z m30 -6 c0 -5 -2 -10 -4
-10 -3 0 -8 5 -11 10 -3 6 -1 10 4 10 6 0 11 -4 11 -10z m1240 -7 c0 -3 -7 -3
-15 1 -17 6 -21 -9 -5 -19 6 -4 18 -1 27 7 15 12 15 11 2 -9 -8 -13 -16 -23
-19 -23 -10 0 -31 41 -25 50 5 9 35 3 35 -7z m-1205 -13 c3 -5 1 -10 -4 -10
-6 0 -11 5 -11 10 0 6 2 10 4 10 3 0 8 -4 11 -10z m1147 -4 c9 -4 19 -15 22
-23 5 -12 4 -13 -7 -5 -8 7 -18 8 -22 4 -5 -4 -5 -1 -1 6 4 6 4 12 -1 13 -21
2 -45 8 -50 13 -7 7 39 1 59 -8z m-1127 -16 c-3 -5 1 -10 9 -10 9 0 16 -5 16
-12 0 -6 -3 -8 -7 -5 -3 4 -11 2 -18 -3 -8 -7 -11 -3 -9 13 3 27 3 27 10 27 3
0 2 -4 -1 -10z m1245 5 c0 -2 -13 -10 -29 -18 -28 -14 -29 -14 -19 2 9 14 48
27 48 16z m717 -27 c-3 -8 -6 -5 -6 6 -1 11 2 17 5 13 3 -3 4 -12 1 -19z
m-2043 -11 c-5 -15 -3 -17 7 -11 8 5 20 9 27 10 10 2 11 -1 1 -12 -6 -8 -9
-18 -5 -21 4 -4 11 -2 15 6 10 16 24 -12 24 -46 0 -12 6 -24 13 -27 9 -3 11 3
8 20 -2 13 0 24 5 24 6 0 8 -9 6 -20 -2 -11 1 -20 6 -20 6 0 7 -5 4 -11 -4 -6
-14 -8 -22 -5 -8 3 -11 1 -8 -4 9 -15 21 -12 41 8 17 16 18 16 11 0 -19 -48
-19 -53 2 -30 l21 24 10 -27 c5 -14 14 -23 20 -20 5 3 10 1 10 -4 0 -14 -13
-14 -28 1 -17 17 -15 -3 4 -32 l16 -25 -20 23 c-11 12 -27 22 -36 22 -9 0 -16
5 -16 11 0 8 -6 7 -17 -2 -16 -13 -17 -12 -4 4 12 15 12 19 -5 32 -18 14 -46
20 -69 15 -5 -1 -7 1 -3 5 4 4 0 14 -8 22 -8 8 -11 19 -8 25 4 6 -2 8 -17 4
-13 -3 -18 -3 -11 0 6 3 9 10 6 15 -3 6 -11 5 -20 -2 -10 -8 -14 -8 -14 0 0 6
4 11 8 11 5 0 9 7 9 15 0 9 -6 14 -13 11 -7 -3 -10 2 -7 13 3 12 14 18 34 18
25 0 28 -4 23 -20z m1372 10 c4 -3 -4 -4 -16 -2 -30 6 -40 16 -12 12 12 -2 24
-6 28 -10z m650 -3 c-1 -8 -6 -17 -12 -21 -5 -4 -6 -4 -2 1 4 5 3 14 -2 21 -7
8 -5 12 4 12 8 0 13 -6 12 -13z m-1910 -32 c-17 -16 -18 -16 -5 5 7 12 15 20
18 17 3 -2 -3 -12 -13 -22z m1228 20 c3 -5 -1 -9 -9 -9 -8 0 -15 4 -15 9 0 4
4 8 9 8 6 0 12 -4 15 -8z m631 -20 c5 -27 -8 -35 -62 -37 -48 -3 -55 6 -19 23
19 8 27 7 40 -6 16 -16 17 -15 12 11 -3 16 -1 25 5 22 5 -4 9 -1 9 6 0 18 10
5 15 -19z m25 18 c0 -5 -2 -10 -4 -10 -3 0 -8 5 -11 10 -3 6 -1 10 4 10 6 0
11 -4 11 -10z m-2066 -16 c3 -8 2 -12 -4 -9 -6 3 -10 10 -10 16 0 14 7 11 14
-7z m1351 7 c3 -5 1 -12 -5 -16 -5 -3 -10 1 -10 9 0 18 6 21 15 7z m818 -6
c-3 -9 -8 -14 -10 -11 -3 3 -2 9 2 15 9 16 15 13 8 -4z m-1949 -3 c3 -5 -1 -9
-9 -9 -8 0 -12 4 -9 9 3 4 7 8 9 8 2 0 6 -4 9 -8z m26 -37 c0 -12 -19 -12 -23
0 -4 9 -1 12 9 8 7 -3 14 -7 14 -8z m1673 0 c-3 -9 -8 -14 -10 -11 -3 3 -2 9
2 15 9 16 15 13 8 -4z m-1648 -5 c3 -5 1 -10 -4 -10 -6 0 -11 5 -11 10 0 6 2
10 4 10 3 0 8 -4 11 -10z m1240 -5 c-5 -23 -18 -45 -27 -45 -5 0 -6 5 -3 10 3
6 -1 13 -9 16 -12 5 -13 9 -3 19 14 15 46 16 42 0z m385 9 c0 -8 -19 -13 -24
-6 -3 5 1 9 9 9 8 0 15 -2 15 -3z m-356 -20 c3 -8 2 -12 -4 -9 -6 3 -10 10
-10 16 0 14 7 11 14 -7z m-1484 -4 c0 -5 -2 -10 -4 -10 -3 0 -8 5 -11 10 -3 6
-1 10 4 10 6 0 11 -4 11 -10z m91 -57 c13 -16 12 -17 -3 -4 -10 7 -18 15 -18
17 0 8 8 3 21 -13z m189 7 c8 -5 11 -10 5 -10 -5 0 -17 5 -25 10 -8 5 -10 10
-5 10 6 0 17 -5 25 -10z m35 -57 c-18 -17 -18 -17 -6 0 11 14 11 20 0 35 -12
16 -12 16 6 0 19 -18 19 -18 0 -35z m-22 6 c-8 -8 -13 -7 -18 2 -6 8 -4 10 5
4 10 -6 12 -4 6 11 -6 15 -5 17 5 7 9 -10 10 -16 2 -24z m-68 1 c-3 -5 -12
-10 -18 -10 -7 0 -6 4 3 10 19 12 23 12 15 0z m124 -7 c-3 -20 2 -27 11 -13 5
8 11 12 13 10 2 -3 -5 -18 -15 -35 -11 -16 -17 -22 -14 -12 9 28 -4 41 -21 20
-8 -10 -11 -11 -7 -3 14 30 36 51 33 33z m-89 -13 c0 -5 -2 -10 -4 -10 -3 0
-8 5 -11 10 -3 6 -1 10 4 10 6 0 11 -4 11 -10z m137 -17 c0 -18 -14 -33 -32
-33 -5 1 -1 7 9 15 11 8 16 15 12 15 -4 0 -4 5 -1 10 9 14 12 12 12 -7z m1513
7 c-8 -5 -15 -14 -15 -20 0 -5 -4 -10 -10 -11 -5 0 -17 -6 -25 -12 -9 -7 -8
-4 3 9 9 11 14 24 10 29 -5 4 -3 5 4 1 6 -3 14 -2 18 4 3 5 12 10 18 10 7 0 6
-4 -3 -10z m-1487 -25 c-3 -8 0 -15 6 -15 6 0 11 5 11 10 0 6 5 10 11 10 5 0
8 -4 4 -9 -7 -12 29 -33 40 -23 5 4 5 2 2 -5 -4 -6 -4 -19 -1 -27 6 -15 8 -15
31 0 14 9 23 11 19 6 -3 -6 -2 -13 4 -17 5 -3 10 -1 10 6 0 7 6 5 13 -6 9 -11
19 -15 27 -10 8 5 11 4 6 -3 -3 -5 0 -12 6 -15 7 -2 1 -4 -14 -3 -14 0 -26 3
-26 6 1 20 -4 21 -17 4 -11 -13 -13 -14 -9 -3 4 12 -1 16 -18 16 -43 1 -49 3
-42 15 5 7 1 9 -13 6 -13 -4 -27 2 -38 15 -19 22 -30 71 -15 62 5 -3 7 -12 3
-20z m703 12 c4 -4 0 -7 -9 -7 -9 0 -23 -10 -31 -22 -19 -26 -21 -19 -5 15 11
24 30 29 45 14z m52 -47 c-12 -16 -26 -30 -31 -30 -5 0 -4 6 2 13 6 8 7 18 3
22 -4 5 -2 5 4 2 7 -4 17 0 24 8 22 27 21 16 -2 -15z m-783 10 c-3 -5 -1 -10
6 -10 7 0 10 -3 6 -6 -9 -9 -28 6 -22 17 4 5 8 9 11 9 3 0 2 -4 -1 -10z m1434
-6 c-6 -7 -7 -19 -3 -26 14 -22 13 -36 -4 -34 -9 2 -18 8 -20 14 -2 7 -8 10
-12 7 -5 -3 -12 0 -16 6 -4 7 -3 9 4 5 10 -6 25 8 28 27 3 13 4 14 19 14 11 0
12 -4 4 -13z m-1309 -14 c0 -5 -5 -10 -11 -10 -5 0 -7 5 -4 10 3 6 8 10 11 10
2 0 4 -4 4 -10z m493 -13 c4 3 7 2 7 -3 0 -5 -9 -15 -20 -22 -11 -7 -20 -8
-20 -3 0 5 6 12 13 14 7 3 4 6 -6 6 -10 1 -15 6 -12 11 5 8 11 8 19 1 7 -6 16
-8 19 -4z m706 -13 c3 -4 -2 -4 -11 -1 -11 4 -21 0 -26 -10 -6 -11 -11 -12
-16 -4 -4 6 -1 11 6 11 9 0 9 3 -2 10 -11 8 -8 9 14 6 16 -3 31 -8 35 -12z
m-254 -40 c0 -15 -7 -30 -15 -32 -12 -4 -13 -2 -4 9 9 11 9 17 -1 26 -10 10
-14 9 -19 -2 -6 -17 -44 -15 -51 3 -2 7 -1 10 4 7 5 -3 12 -1 15 4 3 4 19 7
36 5 21 -3 29 0 24 8 -4 6 -3 8 2 5 6 -3 10 -18 9 -33z m140 8 c-8 -8 -25 10
-19 20 4 6 9 5 15 -3 4 -7 6 -15 4 -17z m-955 -2 c0 -5 -2 -10 -4 -10 -3 0 -8
5 -11 10 -3 6 -1 10 4 10 6 0 11 -4 11 -10z m325 -8 c-3 -3 -11 0 -18 7 -9 10
-8 11 6 5 10 -3 15 -9 12 -12z m545 4 c-7 -7 -13 -7 -20 0 -6 6 -3 10 10 10
13 0 16 -4 10 -10z m198 -49 c-5 -10 -12 -16 -15 -13 -4 3 -12 1 -19 -5 -13
-10 -32 6 -20 18 3 4 6 0 6 -8 0 -8 9 1 21 20 16 26 23 31 29 21 5 -8 4 -22
-2 -33z m-1000 -3 c20 10 33 12 37 5 5 -7 11 -6 21 2 12 10 13 9 8 -6 -7 -17
-6 -17 20 0 15 10 29 15 32 12 3 -3 -4 -8 -15 -12 -12 -3 -19 -11 -15 -16 4
-6 14 -4 28 5 24 15 39 11 49 -16 4 -12 2 -15 -8 -11 -8 3 -12 9 -9 14 9 15
-20 6 -34 -11 -12 -13 -13 -13 -7 0 4 8 -5 2 -19 -13 -15 -16 -26 -22 -27 -15
0 7 -5 3 -11 -9 -10 -20 -12 -21 -34 -7 -13 9 -29 12 -35 8 -7 -4 -9 -3 -6 3
7 12 -29 73 -43 73 -6 0 -8 5 -5 10 4 6 14 2 24 -11 16 -21 19 -21 49 -5z
m-115 -11 c-3 -7 -6 -13 -8 -13 -2 0 -5 6 -8 13 -3 8 1 14 8 14 7 0 11 -6 8
-14z m55 -10 c2 -7 -1 -13 -8 -13 -6 0 -8 5 -4 12 5 8 2 9 -9 5 -10 -3 -17 -2
-17 4 0 14 32 7 38 -8z m983 -10 c7 -10 9 -15 5 -11 -5 4 -15 3 -22 -3 -10 -8
-13 -6 -11 10 2 26 10 27 28 4z m-767 -14 c14 -7 23 -16 20 -21 -3 -5 -12 -4
-20 3 -10 8 -14 8 -14 0 0 -6 5 -11 10 -11 6 0 10 -5 10 -11 0 -5 -4 -8 -9 -4
-5 3 -17 -3 -27 -12 -17 -17 -18 -17 -11 0 5 13 3 17 -5 14 -7 -2 -12 -9 -11
-15 3 -14 -24 -9 -40 8 -9 10 -9 11 1 6 7 -5 16 2 22 19 5 14 14 24 19 20 5
-3 12 -1 16 5 8 13 9 12 39 -1z m51 -6 c-3 -8 -5 -19 -5 -24 0 -6 -4 -7 -10
-4 -5 3 -10 1 -10 -4 0 -6 5 -11 11 -11 5 0 7 -5 3 -12 -4 -7 -3 -8 4 -4 8 4
10 2 6 -8 -6 -15 -44 -18 -44 -4 0 4 -3 7 -7 5 -5 -1 -9 3 -10 8 -2 6 1 10 7
10 13 0 39 37 33 50 -2 7 3 12 12 12 10 0 14 -6 10 -14z m-245 -3 c0 -5 -2
-10 -4 -10 -3 0 -8 5 -11 10 -3 6 -1 10 4 10 6 0 11 -4 11 -10z m293 -22 c-2
-5 0 -15 7 -23 13 -16 -3 -30 -22 -19 -9 5 -8 2 1 -9 8 -10 11 -20 7 -24 -3
-3 -6 -1 -6 6 0 7 -7 11 -14 8 -10 -4 -13 -1 -9 9 3 8 0 21 -7 29 -9 11 -9 15
-1 15 7 0 9 5 6 10 -11 18 5 30 25 18 10 -7 16 -16 13 -20z m387 -67 c-6 -12
-16 -19 -21 -15 -6 4 -4 13 7 25 21 24 29 18 14 -10z"/>
<path d="M1626 3672 c-3 -5 1 -9 9 -9 8 0 12 4 9 9 -3 4 -7 8 -9 8 -2 0 -6 -4
-9 -8z"/>
<path d="M1535 3652 c3 -7 5 -16 5 -19 0 -2 7 3 16 12 11 11 20 13 28 5 7 -5
16 -7 19 -3 15 14 5 19 -33 19 -30 0 -39 -4 -35 -14z"/>
<path d="M1716 3658 c3 -5 10 -6 15 -3 13 9 11 12 -6 12 -8 0 -12 -4 -9 -9z"/>
<path d="M1364 3618 c-3 -4 5 -5 17 -3 30 6 36 14 9 12 -12 -1 -24 -5 -26 -9z"/>
<path d="M1310 3599 c0 -5 5 -7 10 -4 6 3 10 8 10 11 0 2 -4 4 -10 4 -5 0 -10
-5 -10 -11z"/>
<path d="M600 2880 c10 -6 9 -9 -1 -14 -8 -3 -4 -3 9 0 21 5 22 4 10 -15 -11
-18 -14 -18 -28 -6 -14 12 -16 12 -16 -3 0 -12 9 -17 28 -17 15 -1 28 4 28 10
0 5 3 19 6 30 4 16 0 20 -22 22 -17 0 -22 -2 -14 -7z"/>
<path d="M536 2793 c-6 -14 -5 -15 5 -6 7 7 10 15 7 18 -3 3 -9 -2 -12 -12z"/>
<path d="M565 2799 c-3 -4 2 -6 10 -5 21 3 28 13 10 13 -9 0 -18 -4 -20 -8z"/>
<path d="M608 2798 c-3 -7 -1 -24 3 -38 7 -26 9 -23 13 23 3 27 -8 37 -16 15z"/>
<path d="M580 2771 c0 -6 4 -13 10 -16 6 -3 7 1 4 9 -7 18 -14 21 -14 7z"/>
<path d="M547 2759 c7 -7 15 -10 18 -7 3 3 -2 9 -12 12 -14 6 -15 5 -6 -5z"/>
<path d="M588 2731 c8 -4 13 -11 13 -15 0 -3 2 -13 6 -22 3 -9 2 -19 -3 -23
-14 -9 -14 -61 0 -61 15 0 17 93 2 102 -7 5 -6 8 4 8 13 0 13 1 0 10 -8 5 -19
10 -25 10 -5 0 -4 -4 3 -9z"/>
<path d="M556 2658 c3 -5 10 -6 15 -3 13 9 11 12 -6 12 -8 0 -12 -4 -9 -9z"/>
<path d="M597 2593 c-4 -3 -7 -11 -7 -17 0 -6 5 -5 12 2 6 6 9 14 7 17 -3 3
-9 2 -12 -2z"/>
<path d="M556 2567 c3 -10 9 -15 12 -12 3 3 0 11 -7 18 -10 9 -11 8 -5 -6z"/>
<path d="M605 2561 c-3 -5 -2 -12 3 -15 5 -3 9 1 9 9 0 17 -3 19 -12 6z"/>
<path d="M510 2541 c0 -6 4 -13 10 -16 6 -3 7 1 4 9 -7 18 -14 21 -14 7z"/>
<path d="M574 2529 c-3 -6 -2 -15 3 -20 5 -5 9 -1 9 11 0 23 -2 24 -12 9z"/>
<path d="M601 2514 c0 -11 3 -14 6 -6 3 7 2 16 -1 19 -3 4 -6 -2 -5 -13z"/>
<path d="M435 2500 c3 -5 8 -10 11 -10 2 0 4 5 4 10 0 6 -5 10 -11 10 -5 0 -7
-4 -4 -10z"/>
<path d="M560 2480 c-9 -6 -10 -10 -3 -10 6 0 15 5 18 10 8 12 4 12 -15 0z"/>
<path d="M590 2481 c0 -6 5 -13 10 -16 6 -3 10 1 10 9 0 9 -4 16 -10 16 -5 0
-10 -4 -10 -9z"/>
<path d="M600 2441 c0 -6 4 -13 10 -16 6 -3 7 1 4 9 -7 18 -14 21 -14 7z"/>
<path d="M602 2390 c0 -14 2 -19 5 -12 2 6 2 18 0 25 -3 6 -5 1 -5 -13z"/>
<path d="M436 2358 c3 -5 10 -6 15 -3 13 9 11 12 -6 12 -8 0 -12 -4 -9 -9z"/>
<path d="M575 2359 c-4 -5 -1 -8 7 -7 7 2 12 -3 10 -10 -1 -8 2 -11 8 -7 5 3
10 10 10 15 0 12 -29 20 -35 9z"/>
<path d="M410 2300 c0 -5 5 -10 11 -10 5 0 7 5 4 10 -3 6 -8 10 -11 10 -2 0
-4 -4 -4 -10z"/>
<path d="M536 2298 c3 -5 10 -6 15 -3 13 9 11 12 -6 12 -8 0 -12 -4 -9 -9z"/>
<path d="M609 2293 c-1 -5 -1 -16 0 -25 1 -10 -3 -18 -10 -18 -10 0 -10 -3 -1
-12 13 -13 17 -62 4 -54 -5 3 -9 -1 -9 -8 0 -11 4 -12 17 -3 13 8 16 17 10 36
-4 14 -6 41 -4 59 1 17 0 32 -2 32 -2 0 -5 -3 -5 -7z"/>
<path d="M575 2280 c-3 -5 -1 -10 4 -10 6 0 11 5 11 10 0 6 -2 10 -4 10 -3 0
-8 -4 -11 -10z"/>
<path d="M410 2259 c0 -5 5 -7 10 -4 6 3 10 8 10 11 0 2 -4 4 -10 4 -5 0 -10
-5 -10 -11z"/>
<path d="M533 2205 c0 -8 4 -12 9 -9 5 3 6 10 3 15 -9 13 -12 11 -12 -6z"/>
<path d="M494 2156 c1 -8 5 -18 8 -22 4 -3 5 1 4 10 -1 8 -5 18 -8 22 -4 3 -5
-1 -4 -10z"/>
<path d="M619 2163 c-1 -5 -1 -12 0 -17 1 -5 -6 -5 -16 -2 -9 4 -14 4 -10 0 4
-4 2 -12 -3 -19 -7 -8 -5 -12 5 -12 8 0 11 5 8 10 -3 5 0 8 8 5 9 -3 14 -19
14 -44 0 -33 -3 -39 -20 -36 -16 2 -17 1 -5 -7 8 -5 18 -7 22 -5 11 7 30 -45
21 -59 -12 -19 -14 -47 -4 -47 6 0 8 9 6 20 -2 11 0 20 5 20 5 0 8 -8 8 -17
-1 -10 2 -29 7 -43 7 -23 7 -24 -11 -10 -17 13 -18 13 -8 0 6 -8 10 -28 8 -45
-2 -17 0 -24 4 -15 8 16 32 25 32 12 0 -4 -6 -14 -12 -21 -11 -12 -10 -13 6
-7 14 5 17 2 12 -9 -6 -16 10 -54 29 -67 6 -5 6 -8 -2 -8 -6 0 -19 10 -27 22
-9 12 -16 18 -16 13 1 -16 26 -45 40 -45 8 0 11 -9 7 -26 -3 -16 0 -28 10 -31
7 -3 13 -13 12 -22 -3 -36 1 -42 23 -35 21 6 22 6 8 -12 -8 -10 -19 -23 -25
-27 -6 -5 -4 -7 5 -5 17 3 60 -27 75 -52 8 -13 6 -13 -8 -2 -9 8 -22 12 -29 9
-8 -3 -6 -6 5 -6 10 -1 15 -6 12 -11 -4 -6 -3 -10 2 -9 21 4 34 -2 27 -13 -4
-6 -3 -8 3 -5 14 9 24 -17 17 -40 -5 -15 -4 -16 5 -3 9 13 12 13 23 1 11 -12
10 -12 -2 -6 -13 8 -13 7 0 -10 14 -17 13 -18 -3 -12 -11 4 -16 3 -12 -4 4 -5
15 -7 26 -4 15 5 17 3 12 -11 -5 -14 -3 -16 10 -11 15 6 16 4 6 -16 -11 -20
-11 -21 4 -9 14 12 16 11 14 -7 -1 -12 -10 -24 -20 -27 -10 -3 -16 -8 -14 -11
3 -2 15 0 26 7 17 9 25 8 37 -5 8 -8 20 -15 25 -15 5 0 9 -5 9 -11 0 -5 -5 -7
-12 -3 -6 4 -8 3 -4 -4 3 -5 0 -13 -6 -15 -7 -3 -8 -6 -3 -6 6 0 18 6 29 14
18 13 16 17 -30 72 -94 110 -134 170 -209 310 -40 74 -117 306 -131 393 -7 44
-12 75 -14 80 -1 3 -2 13 -1 23 2 16 -8 25 -10 10z m58 -288 c0 -8 -4 -12 -9
-9 -5 3 -6 10 -3 15 9 13 12 11 12 -6z m78 -195 c3 -6 -1 -7 -9 -4 -18 7 -21
14 -7 14 6 0 13 -4 16 -10z m12 -39 c0 -11 -5 -18 -9 -15 -4 3 -5 11 -1 19 7
21 12 19 10 -4z m44 -73 c8 -15 8 -18 0 -14 -6 4 -16 16 -22 28 -8 15 -8 18 0
14 6 -4 16 -16 22 -28z m164 -228 c3 -6 -1 -7 -9 -4 -18 7 -21 14 -7 14 6 0
13 -4 16 -10z"/>
<path d="M455 2099 c-3 -4 2 -6 10 -5 21 3 28 13 10 13 -9 0 -18 -4 -20 -8z"/>
<path d="M490 2059 c0 -5 5 -7 10 -4 6 3 10 8 10 11 0 2 -4 4 -10 4 -5 0 -10
-5 -10 -11z"/>
<path d="M595 2000 c2 -27 10 -33 12 -10 1 11 -2 22 -6 24 -4 3 -7 -4 -6 -14z"/>
<path d="M622 2000 c0 -14 2 -19 5 -12 2 6 2 18 0 25 -3 6 -5 1 -5 -13z"/>
<path d="M506 2002 c-2 -4 4 -8 14 -8 10 0 16 4 14 8 -3 4 -9 8 -14 8 -5 0
-11 -4 -14 -8z"/>
<path d="M536 1938 c3 -5 10 -6 15 -3 13 9 11 12 -6 12 -8 0 -12 -4 -9 -9z"/>
<path d="M575 1940 c-3 -5 -1 -10 4 -10 6 0 11 5 11 10 0 6 -2 10 -4 10 -3 0
-8 -4 -11 -10z"/>
<path d="M654 1801 c0 -11 5 -17 13 -14 10 4 11 9 2 19 -15 18 -15 18 -15 -5z"/>
<path d="M610 1779 c0 -5 5 -7 10 -4 6 3 10 8 10 11 0 2 -4 4 -10 4 -5 0 -10
-5 -10 -11z"/>
<path d="M594 1742 c4 -3 14 -7 22 -8 9 -1 13 0 10 4 -4 3 -14 7 -22 8 -9 1
-13 0 -10 -4z"/>
<path d="M665 1720 c-3 -6 1 -7 9 -4 18 7 21 14 7 14 -6 0 -13 -4 -16 -10z"/>
<path d="M680 1700 c-12 -7 -10 -9 7 -7 12 0 19 5 17 9 -6 10 -6 10 -24 -2z"/>
<path d="M635 1651 c-3 -5 -2 -12 3 -15 5 -3 9 1 9 9 0 17 -3 19 -12 6z"/>
<path d="M715 1651 c-3 -5 -2 -12 3 -15 5 -3 9 1 9 9 0 17 -3 19 -12 6z"/>
<path d="M695 1620 c-3 -5 -1 -10 4 -10 6 0 11 5 11 10 0 6 -2 10 -4 10 -3 0
-8 -4 -11 -10z"/>
<path d="M796 1481 c9 -9 34 -9 34 -1 0 5 -9 8 -20 7 -10 -1 -17 -3 -14 -6z"/>
<path d="M830 1436 c0 -2 8 -10 18 -17 15 -13 16 -12 3 4 -13 16 -21 21 -21
13z"/>
<path d="M795 1400 c3 -5 8 -10 11 -10 2 0 4 5 4 10 0 6 -5 10 -11 10 -5 0 -7
-4 -4 -10z"/>
<path d="M515 1391 c-3 -5 -2 -12 3 -15 5 -3 9 1 9 9 0 17 -3 19 -12 6z"/>
<path d="M895 1360 c3 -5 8 -10 11 -10 2 0 4 5 4 10 0 6 -5 10 -11 10 -5 0 -7
-4 -4 -10z"/>
<path d="M950 1300 c0 -6 7 -10 15 -10 8 0 15 2 15 4 0 2 -7 6 -15 10 -8 3
-15 1 -15 -4z"/>
<path d="M1019 1263 c-10 -11 -10 -14 -1 -9 7 4 12 2 12 -6 0 -10 3 -9 11 2 8
11 9 8 4 -15 -6 -29 -6 -29 9 -10 12 16 15 17 16 5 0 -9 -3 -20 -7 -25 -5 -6
-4 -7 2 -2 5 4 16 7 25 7 13 -1 13 -2 -2 -13 -15 -12 -15 -14 5 -27 20 -12 21
-12 8 3 -16 20 -8 22 21 6 21 -11 21 -12 -3 -26 l-24 -14 24 7 c16 4 21 3 17
-5 -5 -7 -2 -10 6 -9 7 2 12 -3 10 -9 -1 -7 2 -13 8 -13 6 0 10 5 10 10 0 15
26 12 40 -5 10 -12 10 -18 -1 -32 -10 -14 -10 -15 0 -7 14 13 54 7 46 -7 -3
-4 -12 -6 -19 -3 -8 3 -17 0 -22 -7 -5 -9 -2 -10 9 -6 8 3 21 -1 27 -8 10 -12
8 -17 -11 -24 -13 -5 -17 -10 -9 -10 8 0 21 3 29 8 12 8 12 13 3 24 -10 12 -9
16 3 21 9 3 14 2 10 -3 -3 -5 0 -11 7 -13 9 -3 8 -12 -5 -34 -18 -29 -18 -29
1 -7 20 23 40 20 21 -3 -12 -14 -3 -38 11 -29 4 3 10 -2 14 -10 3 -8 10 -15
16 -15 5 0 2 9 -7 19 -9 11 -20 18 -25 15 -4 -3 -8 -1 -8 5 0 5 5 13 10 16 13
8 42 -20 32 -30 -4 -5 -1 -5 6 -1 11 6 10 12 -3 26 -12 14 -13 20 -4 26 7 4
10 3 5 -4 -3 -6 1 -15 10 -20 10 -6 15 -16 11 -25 -4 -12 -2 -14 10 -10 10 4
14 2 10 -4 -4 -6 2 -22 13 -36 17 -21 18 -26 5 -31 -8 -3 -15 -10 -15 -16 0
-6 7 -4 16 4 16 16 39 12 29 -5 -4 -5 2 -6 11 -2 11 4 13 8 6 11 -7 2 -9 9 -6
14 4 6 2 8 -3 5 -15 -9 -45 27 -38 45 4 9 -1 18 -10 22 -10 3 -15 12 -12 20 4
9 -10 24 -36 42 -23 15 -68 47 -100 71 -51 38 -61 42 -75 31 -15 -11 -15 -11
-5 3 10 13 6 21 -29 50 -23 19 -54 46 -69 62 -31 32 -32 32 -50 10z m304 -226
c4 3 7 1 7 -5 0 -20 -19 -13 -30 11 -10 20 -10 20 3 5 8 -10 17 -15 20 -11z"/>
<path d="M906 1262 c-3 -5 1 -9 9 -9 8 0 12 4 9 9 -3 4 -7 8 -9 8 -2 0 -6 -4
-9 -8z"/>
<path d="M605 1240 c-3 -6 1 -7 9 -4 18 7 21 14 7 14 -6 0 -13 -4 -16 -10z"/>
<path d="M670 1240 c0 -5 5 -10 11 -10 5 0 7 5 4 10 -3 6 -8 10 -11 10 -2 0
-4 -4 -4 -10z"/>
<path d="M986 1242 c-3 -5 1 -9 9 -9 8 0 12 4 9 9 -3 4 -7 8 -9 8 -2 0 -6 -4
-9 -8z"/>
<path d="M593 1205 c0 -8 4 -12 9 -9 5 3 6 10 3 15 -9 13 -12 11 -12 -6z"/>
<path d="M746 1202 c-3 -5 1 -9 9 -9 8 0 12 4 9 9 -3 4 -7 8 -9 8 -2 0 -6 -4
-9 -8z"/>
<path d="M646 1182 c-3 -5 1 -9 9 -9 8 0 12 4 9 9 -3 4 -7 8 -9 8 -2 0 -6 -4
-9 -8z"/>
<path d="M936 1178 c3 -4 11 -5 19 -1 21 7 19 12 -4 10 -11 0 -18 -5 -15 -9z"/>
<path d="M1056 1167 c3 -8 11 -14 19 -14 20 0 19 4 -5 17 -15 8 -18 8 -14 -3z"/>
<path d="M735 1160 c-3 -5 -1 -10 4 -10 6 0 11 5 11 10 0 6 -2 10 -4 10 -3 0
-8 -4 -11 -10z"/>
<path d="M896 1162 c-3 -5 1 -9 9 -9 8 0 12 4 9 9 -3 4 -7 8 -9 8 -2 0 -6 -4
-9 -8z"/>
<path d="M987 1159 c7 -7 15 -10 18 -7 3 3 -2 9 -12 12 -14 6 -15 5 -6 -5z"/>
<path d="M1090 1118 c0 -4 4 -8 9 -8 6 0 12 4 15 8 3 5 -1 9 -9 9 -8 0 -15 -4
-15 -9z"/>
<path d="M973 1105 c0 -8 4 -12 9 -9 5 3 6 10 3 15 -9 13 -12 11 -12 -6z"/>
<path d="M1167 1087 c-25 -33 -25 -33 -4 -35 17 -1 19 1 7 8 -13 9 -7 14 12
11 4 0 4 7 1 16 -4 10 -2 14 5 9 6 -3 13 -2 16 3 4 5 2 12 -3 15 -5 3 -20 -9
-34 -27z"/>
<path d="M735 1101 c-3 -5 -2 -12 3 -15 5 -3 9 1 9 9 0 17 -3 19 -12 6z"/>
<path d="M1135 1090 c-4 -6 -10 -8 -15 -5 -4 3 -7 -2 -6 -10 1 -8 4 -16 7 -17
2 -2 3 -1 1 1 -1 2 5 13 15 23 9 10 13 18 10 18 -3 0 -9 -5 -12 -10z"/>
<path d="M730 1059 c0 -5 5 -7 10 -4 6 3 10 8 10 11 0 2 -4 4 -10 4 -5 0 -10
-5 -10 -11z"/>
<path d="M795 1060 c3 -5 8 -10 11 -10 2 0 4 5 4 10 0 6 -5 10 -11 10 -5 0 -7
-4 -4 -10z"/>
<path d="M860 1046 c0 -2 8 -10 18 -17 15 -13 16 -12 3 4 -13 16 -21 21 -21
13z"/>
<path d="M1079 1033 c-13 -16 -12 -17 4 -4 9 7 17 15 17 17 0 8 -8 3 -21 -13z"/>
<path d="M735 1020 c3 -5 8 -10 11 -10 2 0 4 5 4 10 0 6 -5 10 -11 10 -5 0 -7
-4 -4 -10z"/>
<path d="M775 1020 c3 -5 8 -10 11 -10 2 0 4 5 4 10 0 6 -5 10 -11 10 -5 0 -7
-4 -4 -10z"/>
<path d="M1187 1019 c7 -7 15 -10 18 -7 3 3 -2 9 -12 12 -14 6 -15 5 -6 -5z"/>
<path d="M1014 996 c1 -8 5 -18 8 -22 4 -3 5 1 4 10 -1 8 -5 18 -8 22 -4 3 -5
-1 -4 -10z"/>
<path d="M1054 996 c1 -8 5 -18 8 -22 4 -3 5 1 4 10 -1 8 -5 18 -8 22 -4 3 -5
-1 -4 -10z"/>
<path d="M1136 998 c3 -5 10 -6 15 -3 13 9 11 12 -6 12 -8 0 -12 -4 -9 -9z"/>
<path d="M735 980 c-3 -5 -1 -10 4 -10 6 0 11 5 11 10 0 6 -2 10 -4 10 -3 0
-8 -4 -11 -10z"/>
<path d="M1200 980 c-9 -6 -10 -10 -3 -10 6 0 15 5 18 10 8 12 4 12 -15 0z"/>
<path d="M1255 970 c-4 -6 -12 -7 -18 -4 -7 4 -8 3 -4 -1 13 -15 34 -14 34 1
0 17 -4 18 -12 4z"/>
<path d="M959 953 c-13 -16 -12 -17 4 -4 9 7 17 15 17 17 0 8 -8 3 -21 -13z"/>
<path d="M1014 936 c1 -8 5 -18 8 -22 4 -3 5 1 4 10 -1 8 -5 18 -8 22 -4 3 -5
-1 -4 -10z"/>
<path d="M1099 948 c-5 -18 -6 -38 -1 -34 7 8 12 36 6 36 -2 0 -4 -1 -5 -2z"/>
<path d="M1306 942 c-3 -5 1 -9 9 -9 8 0 12 4 9 9 -3 4 -7 8 -9 8 -2 0 -6 -4
-9 -8z"/>
<path d="M1352 942 c-9 -6 -5 -12 15 -20 24 -11 26 -10 11 1 -10 8 -15 17 -11
20 9 9 1 8 -15 -1z"/>
<path d="M750 920 c0 -5 5 -10 11 -10 5 0 7 5 4 10 -3 6 -8 10 -11 10 -2 0 -4
-4 -4 -10z"/>
<path d="M790 920 c0 -5 5 -10 10 -10 6 0 10 5 10 10 0 6 -4 10 -10 10 -5 0
-10 -4 -10 -10z"/>
<path d="M836 918 c3 -5 10 -6 15 -3 13 9 11 12 -6 12 -8 0 -12 -4 -9 -9z"/>
<path d="M930 899 c0 -5 5 -7 10 -4 6 3 10 8 10 11 0 2 -4 4 -10 4 -5 0 -10
-5 -10 -11z"/>
<path d="M1310 898 c0 -4 4 -8 9 -8 6 0 12 4 15 8 3 5 -1 9 -9 9 -8 0 -15 -4
-15 -9z"/>
<path d="M1350 906 c0 -2 7 -7 16 -10 8 -3 12 -2 9 4 -6 10 -25 14 -25 6z"/>
<path d="M780 885 c0 -2 6 -8 13 -14 10 -8 14 -7 14 2 0 8 -6 14 -14 14 -7 0
-13 -1 -13 -2z"/>
<path d="M1115 880 c-3 -5 -1 -10 4 -10 6 0 11 5 11 10 0 6 -2 10 -4 10 -3 0
-8 -4 -11 -10z"/>
<path d="M1010 859 c0 -5 5 -7 10 -4 6 3 10 8 10 11 0 2 -4 4 -10 4 -5 0 -10
-5 -10 -11z"/>
<path d="M1055 860 c3 -5 8 -10 11 -10 2 0 4 5 4 10 0 6 -5 10 -11 10 -5 0 -7
-4 -4 -10z"/>
<path d="M1510 861 c0 -6 4 -13 10 -16 6 -3 7 1 4 9 -7 18 -14 21 -14 7z"/>
<path d="M1279 833 c-13 -16 -12 -17 4 -4 9 7 17 15 17 17 0 8 -8 3 -21 -13z"/>
<path d="M1476 839 c3 -5 9 -7 14 -4 4 3 11 0 13 -5 3 -6 4 -5 3 1 -1 7 -10
13 -19 15 -9 1 -15 -2 -11 -7z"/>
<path d="M1575 814 c-13 -20 -14 -29 -5 -38 8 -8 10 -7 6 4 -6 17 11 44 34 53
13 4 12 6 -1 6 -9 1 -24 -11 -34 -25z"/>
<path d="M1175 820 c-3 -5 -1 -10 4 -10 6 0 11 5 11 10 0 6 -2 10 -4 10 -3 0
-8 -4 -11 -10z"/>
<path d="M1469 817 c6 -8 7 -18 3 -22 -4 -5 -1 -5 6 -1 10 6 10 11 1 22 -6 8
-14 14 -16 14 -3 0 0 -6 6 -13z"/>
<path d="M1620 813 c0 -7 5 -15 10 -18 6 -4 8 -11 5 -16 -4 -5 -1 -9 4 -9 15
0 13 11 -4 34 -8 11 -15 15 -15 9z"/>
<path d="M1694 793 c3 -19 36 -32 36 -14 0 6 -7 7 -17 4 -10 -4 -14 -2 -9 5 3
6 2 13 -3 16 -5 4 -8 -2 -7 -11z"/>
<path d="M970 779 c0 -5 5 -7 10 -4 6 3 10 8 10 11 0 2 -4 4 -10 4 -5 0 -10
-5 -10 -11z"/>
<path d="M1095 780 c3 -5 8 -10 11 -10 2 0 4 5 4 10 0 6 -5 10 -11 10 -5 0 -7
-4 -4 -10z"/>
<path d="M1130 780 c0 -5 5 -10 11 -10 5 0 7 5 4 10 -3 6 -8 10 -11 10 -2 0
-4 -4 -4 -10z"/>
<path d="M1740 771 c0 -10 19 -25 25 -20 1 2 -3 10 -11 17 -8 7 -14 8 -14 3z"/>
<path d="M1265 759 c-3 -4 2 -6 10 -5 21 3 28 13 10 13 -9 0 -18 -4 -20 -8z"/>
<path d="M1670 748 c-12 -22 -12 -22 6 -6 10 10 15 20 12 24 -4 3 -12 -5 -18
-18z"/>
<path d="M1631 747 c-8 -10 -7 -14 2 -14 8 0 14 6 14 14 0 7 -1 13 -2 13 -2 0
-8 -6 -14 -13z"/>
<path d="M1475 740 c-3 -5 -1 -10 4 -10 6 0 11 5 11 10 0 6 -2 10 -4 10 -3 0
-8 -4 -11 -10z"/>
<path d="M1735 740 c6 -10 4 -12 -11 -6 -15 6 -17 5 -6 -5 9 -9 15 -10 23 -2
8 8 7 13 -2 18 -8 6 -10 4 -4 -5z"/>
<path d="M1779 748 c-7 -23 -4 -35 7 -35 8 0 14 4 14 9 0 4 -5 8 -11 8 -5 0
-7 5 -4 10 3 6 4 10 1 10 -3 0 -6 -1 -7 -2z"/>
<path d="M1275 720 c2 -27 10 -33 12 -10 1 11 -2 22 -6 24 -4 3 -7 -4 -6 -14z"/>
<path d="M990 721 c0 -6 4 -13 10 -16 6 -3 7 1 4 9 -7 18 -14 21 -14 7z"/>
<path d="M1310 723 c0 -6 8 -17 18 -24 16 -13 16 -13 2 6 -8 11 -16 22 -17 24
-2 2 -3 0 -3 -6z"/>
<path d="M1693 715 c0 -8 4 -12 9 -9 5 3 6 10 3 15 -9 13 -12 11 -12 -6z"/>
<path d="M1360 700 c-9 -6 -10 -10 -3 -10 6 0 15 5 18 10 8 12 4 12 -15 0z"/>
<path d="M1395 701 c-3 -5 -2 -12 3 -15 5 -3 9 1 9 9 0 17 -3 19 -12 6z"/>
<path d="M1599 693 c-13 -16 -12 -17 4 -4 16 13 21 21 13 21 -2 0 -10 -8 -17
-17z"/>
<path d="M1096 687 c3 -10 9 -15 12 -12 3 3 0 11 -7 18 -10 9 -11 8 -5 -6z"/>
<path d="M996 678 c3 -5 10 -6 15 -3 13 9 11 12 -6 12 -8 0 -12 -4 -9 -9z"/>
<path d="M1155 680 c-3 -5 -1 -10 4 -10 6 0 11 5 11 10 0 6 -2 10 -4 10 -3 0
-8 -4 -11 -10z"/>
<path d="M1206 679 c4 -8 30 -6 38 2 3 3 -5 5 -19 5 -13 0 -22 -3 -19 -7z"/>
<path d="M1279 678 c-5 -18 -6 -38 -1 -34 7 8 12 36 6 36 -2 0 -4 -1 -5 -2z"/>
<path d="M1830 669 c-12 -8 -10 -9 9 -4 17 5 22 4 16 -5 -5 -9 -4 -11 4 -6 6
4 9 12 6 17 -8 12 -16 11 -35 -2z"/>
<path d="M1908 673 c7 -3 16 -2 19 1 4 3 -2 6 -13 5 -11 0 -14 -3 -6 -6z"/>
<path d="M1116 653 c-6 -14 -5 -15 5 -6 7 7 10 15 7 18 -3 3 -9 -2 -12 -12z"/>
<path d="M1317 653 c3 -8 0 -13 -7 -11 -7 2 -14 -3 -15 -10 -2 -7 -1 -8 2 -2
2 5 9 8 13 5 5 -3 13 3 19 13 7 14 6 19 -4 19 -7 0 -11 -7 -8 -14z"/>
<path d="M1506 662 c-3 -5 1 -9 9 -9 8 0 12 4 9 9 -3 4 -7 8 -9 8 -2 0 -6 -4
-9 -8z"/>
<path d="M1590 660 c-12 -7 -10 -9 7 -7 12 0 19 5 17 9 -6 10 -6 10 -24 -2z"/>
<path d="M1707 660 c10 -10 9 -16 -4 -25 -13 -10 -13 -14 -3 -20 9 -6 11 -4 5
5 -6 10 -4 12 11 6 10 -4 15 -4 11 0 -4 4 1 13 11 21 9 8 11 12 4 8 -7 -4 -21
-1 -30 6 -14 11 -15 11 -5 -1z"/>
<path d="M1867 645 c-12 -17 -14 -26 -5 -31 7 -4 8 -3 4 4 -4 7 -3 12 2 12 9
0 26 30 20 35 -2 2 -11 -7 -21 -20z"/>
<path d="M1935 660 c-3 -5 -1 -10 4 -10 6 0 11 5 11 10 0 6 -2 10 -4 10 -3 0
-8 -4 -11 -10z"/>
<path d="M956 647 c3 -10 9 -15 12 -12 3 3 0 11 -7 18 -10 9 -11 8 -5 -6z"/>
<path d="M990 656 c0 -2 8 -10 18 -17 15 -13 16 -12 3 4 -13 16 -21 21 -21 13z"/>
<path d="M1155 651 c-3 -5 -2 -12 3 -15 5 -3 9 1 9 9 0 17 -3 19 -12 6z"/>
<path d="M1372 644 c-7 -8 -8 -14 -3 -14 10 0 25 19 20 25 -2 1 -10 -3 -17
-11z"/>
<path d="M1548 653 c7 -3 16 -2 19 1 4 3 -2 6 -13 5 -11 0 -14 -3 -6 -6z"/>
<path d="M1450 638 c0 -11 12 -10 30 2 12 7 10 9 -8 7 -12 0 -22 -5 -22 -9z"/>
<path d="M1756 635 c-3 -8 -1 -15 4 -15 6 0 10 7 10 15 0 8 -2 15 -4 15 -2 0
-6 -7 -10 -15z"/>
<path d="M1803 637 c-3 -6 -1 -7 5 -3 5 3 12 1 14 -6 3 -8 6 -7 10 3 7 17 -19
22 -29 6z"/>
<path d="M1910 640 c8 -5 20 -10 25 -10 6 0 3 5 -5 10 -8 5 -19 10 -25 10 -5
0 -3 -5 5 -10z"/>
<path d="M1956 634 c-9 -24 -2 -26 12 -4 7 11 8 20 3 20 -5 0 -12 -7 -15 -16z"/>
<path d="M1595 630 c3 -5 8 -10 11 -10 2 0 4 5 4 10 0 6 -5 10 -11 10 -5 0 -7
-4 -4 -10z"/>
<path d="M1055 620 c-3 -5 -1 -10 4 -10 6 0 11 5 11 10 0 6 -2 10 -4 10 -3 0
-8 -4 -11 -10z"/>
<path d="M1390 620 c0 -5 5 -10 10 -10 6 0 10 5 10 10 0 6 -4 10 -10 10 -5 0
-10 -4 -10 -10z"/>
<path d="M1476 618 c-7 -21 -3 -48 6 -48 5 0 6 11 2 25 -5 21 -3 24 12 18 12
-4 15 -3 10 5 -9 16 -26 15 -30 0z"/>
<path d="M1542 600 c-15 -20 -18 -28 -7 -24 8 4 15 10 15 14 0 5 12 7 28 4 18
-3 22 -1 14 4 -8 5 -13 13 -12 18 4 21 -18 12 -38 -16z m38 16 c0 -3 -4 -8
-10 -11 -5 -3 -10 -1 -10 4 0 6 5 11 10 11 6 0 10 -2 10 -4z"/>
<path d="M1670 621 c0 -6 4 -13 10 -16 6 -3 7 1 4 9 -7 18 -14 21 -14 7z"/>
<path d="M1975 620 c-7 -11 22 -26 32 -16 4 3 -1 6 -11 6 -9 0 -14 5 -11 10 3
6 4 10 1 10 -3 0 -8 -5 -11 -10z"/>
<path d="M1230 616 c0 -2 8 -10 18 -17 15 -13 16 -12 3 4 -13 16 -21 21 -21
13z"/>
<path d="M1430 610 c-13 -8 -12 -10 3 -10 9 0 17 5 17 10 0 12 -1 12 -20 0z"/>
<path d="M1512 604 c-7 -8 -8 -14 -3 -14 10 0 25 19 20 25 -2 1 -10 -3 -17
-11z"/>
<path d="M1794 609 c-3 -6 -2 -15 3 -20 5 -5 9 -1 9 11 0 23 -2 24 -12 9z"/>
<path d="M1293 593 c0 -8 5 -9 11 -4 6 5 19 7 29 6 9 -2 17 0 17 5 0 4 -13 7
-28 7 -16 -1 -29 -7 -29 -14z"/>
<path d="M1610 600 c0 -5 5 -10 10 -10 6 0 10 5 10 10 0 6 -4 10 -10 10 -5 0
-10 -4 -10 -10z"/>
<path d="M1650 603 c14 -6 13 -24 -1 -20 -6 1 -14 -5 -16 -13 -4 -12 -3 -12 5
-2 5 8 13 13 18 13 14 -1 10 22 -4 25 -7 1 -8 0 -2 -3z"/>
<path d="M1715 600 c-13 -6 -15 -9 -5 -9 8 0 22 4 30 9 18 12 2 12 -25 0z"/>
<path d="M1830 602 c0 -5 7 -9 15 -9 8 0 12 4 9 9 -3 4 -9 8 -15 8 -5 0 -9 -4
-9 -8z"/>
<path d="M1890 602 c0 -4 10 -9 22 -9 18 -2 20 0 8 7 -18 12 -30 13 -30 2z"/>
<path d="M1034 582 c4 -3 14 -7 22 -8 9 -1 13 0 10 4 -4 3 -14 7 -22 8 -9 1
-13 0 -10 -4z"/>
<path d="M1676 573 c-6 -14 -5 -15 5 -6 7 7 10 15 7 18 -3 3 -9 -2 -12 -12z"/>
<path d="M1736 581 c-4 -5 -1 -13 5 -17 8 -4 9 -3 5 4 -4 7 -3 12 3 12 5 0 12
-5 14 -10 3 -6 4 -5 3 2 -3 16 -23 22 -30 9z"/>
<path d="M2045 579 c-5 -8 -4 -10 3 -5 7 4 12 3 12 -3 0 -5 -6 -12 -12 -14
-10 -4 -10 -6 -1 -6 17 -1 27 19 15 31 -6 6 -12 6 -17 -3z"/>
<path d="M1339 578 c-5 -9 -5 -48 -1 -43 6 6 11 45 5 45 -2 0 -4 -1 -4 -2z"/>
<path d="M1576 569 c7 -13 43 -17 38 -5 -2 6 -13 12 -24 12 -10 0 -17 -3 -14
-7z"/>
<path d="M1817 561 c-3 -12 0 -24 5 -28 6 -3 8 -1 4 5 -3 5 -2 12 4 14 5 2 6
9 1 16 -6 10 -10 9 -14 -7z"/>
<path d="M1387 559 c7 -7 15 -10 18 -7 3 3 -2 9 -12 12 -14 6 -15 5 -6 -5z"/>
<path d="M1536 553 c-6 -14 -5 -15 5 -6 7 7 10 15 7 18 -3 3 -9 -2 -12 -12z"/>
<path d="M1705 560 c3 -5 11 -10 16 -10 6 0 7 5 4 10 -3 6 -11 10 -16 10 -6 0
-7 -4 -4 -10z"/>
<path d="M1966 562 c-3 -5 1 -9 9 -9 8 0 15 4 15 9 0 4 -4 8 -9 8 -6 0 -12 -4
-15 -8z"/>
<path d="M2068 549 c-9 -9 -14 -20 -11 -23 4 -3 13 3 21 15 18 26 12 31 -10 8z"/>
<path d="M1213 545 c0 -8 4 -12 9 -9 5 3 6 10 3 15 -9 13 -12 11 -12 -6z"/>
<path d="M1475 551 c-3 -5 -2 -12 3 -15 5 -3 9 1 9 9 0 17 -3 19 -12 6z"/>
<path d="M1915 549 c-4 -6 -5 -12 -2 -15 2 -3 7 2 10 11 7 17 1 20 -8 4z"/>
<path d="M1735 540 c-3 -6 1 -13 10 -16 10 -4 12 -10 6 -18 -7 -8 -4 -12 12
-13 12 0 16 1 9 4 -6 3 -10 9 -6 14 3 5 -2 12 -10 15 -9 3 -13 10 -10 15 3 5
3 9 0 9 -3 0 -8 -5 -11 -10z"/>
<path d="M1790 541 c0 -10 29 -36 34 -30 1 2 -6 12 -16 22 -10 9 -18 13 -18 8z"/>
<path d="M1650 536 c0 -3 9 -10 19 -15 14 -8 22 -7 32 7 11 14 11 15 -1 5 -9
-8 -19 -9 -32 -2 -10 5 -18 7 -18 5z"/>
<path d="M1890 525 c0 -8 4 -15 10 -15 5 0 7 7 4 15 -4 8 -8 15 -10 15 -2 0
-4 -7 -4 -15z"/>
<path d="M1951 524 c0 -11 3 -14 6 -6 3 7 2 16 -1 19 -3 4 -6 -2 -5 -13z"/>
<path d="M1990 530 c0 -5 5 -10 11 -10 5 0 8 -4 5 -8 -3 -5 1 -9 9 -9 13 0 12
4 -2 19 -18 21 -23 22 -23 8z"/>
<path d="M1135 520 c3 -5 8 -10 11 -10 2 0 4 5 4 10 0 6 -5 10 -11 10 -5 0 -7
-4 -4 -10z"/>
<path d="M1837 510 c-9 -11 -12 -20 -7 -20 6 0 13 7 16 15 4 8 11 12 17 8 6
-3 7 -1 3 5 -9 15 -9 15 -29 -8z"/>
<path d="M2300 521 c0 -9 30 -24 36 -18 2 1 -6 8 -16 15 -11 7 -20 8 -20 3z"/>
<path d="M2356 522 c-3 -5 1 -9 9 -9 8 0 12 4 9 9 -3 4 -7 8 -9 8 -2 0 -6 -4
-9 -8z"/>
<path d="M1455 501 c-3 -5 -2 -12 3 -15 5 -3 9 1 9 9 0 17 -3 19 -12 6z"/>
<path d="M2293 485 c0 -8 4 -15 9 -15 4 0 8 4 8 9 0 6 -4 12 -8 15 -5 3 -9 -1
-9 -9z"/>
<path d="M2215 480 c-3 -6 1 -7 9 -4 18 7 21 14 7 14 -6 0 -13 -4 -16 -10z"/>
<path d="M2326 478 c3 -5 10 -6 15 -3 13 9 11 12 -6 12 -8 0 -12 -4 -9 -9z"/>
<path d="M1573 465 c0 -8 4 -12 9 -9 5 3 6 10 3 15 -9 13 -12 11 -12 -6z"/>
<path d="M2096 472 c-4 -7 -5 -12 -2 -12 2 0 11 -3 20 -6 9 -3 16 -1 16 6 0 6
-4 9 -9 6 -5 -4 -11 -1 -13 6 -3 9 -6 9 -12 0z"/>
<path d="M1719 453 c-13 -16 -12 -17 4 -4 16 13 21 21 13 21 -2 0 -10 -8 -17
-17z"/>
<path d="M1758 463 c7 -3 16 -2 19 1 4 3 -2 6 -13 5 -11 0 -14 -3 -6 -6z"/>
<path d="M2271 453 c7 -12 15 -20 18 -17 3 2 -3 12 -13 22 -17 16 -18 16 -5
-5z"/>
<path d="M2135 441 c-3 -5 0 -13 6 -17 7 -4 9 -3 5 4 -3 6 2 13 11 15 16 4 16
5 1 6 -9 0 -19 -3 -23 -8z"/>
<path d="M2035 429 c-4 -6 -5 -12 -2 -15 2 -3 7 2 10 11 7 17 1 20 -8 4z"/>
<path d="M2055 421 c-3 -5 0 -13 6 -17 7 -4 9 -3 5 4 -3 5 0 13 6 15 9 4 10 6
1 6 -6 1 -14 -3 -18 -8z"/>
<path d="M2115 411 c-3 -5 -2 -12 3 -15 5 -3 9 1 9 9 0 17 -3 19 -12 6z"/>
<path d="M1470 400 c0 -5 5 -10 11 -10 5 0 7 5 4 10 -3 6 -8 10 -11 10 -2 0
-4 -4 -4 -10z"/>
<path d="M1610 400 c0 -5 5 -10 11 -10 5 0 7 5 4 10 -3 6 -8 10 -11 10 -2 0
-4 -4 -4 -10z"/>
<path d="M1710 406 c0 -2 7 -7 16 -10 8 -3 12 -2 9 4 -6 10 -25 14 -25 6z"/>
<path d="M2065 380 c-3 -6 1 -7 9 -4 18 7 21 14 7 14 -6 0 -13 -4 -16 -10z"/>
<path d="M1493 355 c0 -8 4 -12 9 -9 5 3 6 10 3 15 -9 13 -12 11 -12 -6z"/>
<path d="M1535 360 c-4 -6 -3 -10 2 -9 20 3 27 -2 13 -11 -9 -6 -10 -10 -3
-10 19 0 24 17 9 29 -10 9 -16 9 -21 1z"/>
<path d="M1586 358 c3 -5 10 -6 15 -3 13 9 11 12 -6 12 -8 0 -12 -4 -9 -9z"/>
<path d="M1600 340 c-9 -6 -10 -10 -3 -10 6 0 15 5 18 10 8 12 4 12 -15 0z"/>
<path d="M250 2615 c-7 -9 -11 -17 -9 -20 3 -2 10 5 17 15 14 24 10 26 -8 5z"/>
<path d="M236 2553 c-6 -14 -5 -15 5 -6 7 7 10 15 7 18 -3 3 -9 -2 -12 -12z"/>
<path d="M216 2521 c-4 -5 -2 -12 3 -15 5 -4 12 -2 15 3 4 5 2 12 -3 15 -5 4
-12 2 -15 -3z"/>
<path d="M215 2471 c-3 -5 -2 -12 3 -15 5 -3 9 1 9 9 0 17 -3 19 -12 6z"/>
<path d="M199 2378 c-5 -18 -6 -38 -1 -34 7 8 12 36 6 36 -2 0 -4 -1 -5 -2z"/>
<path d="M371 2596 c-8 -10 -9 -16 -1 -21 5 -3 10 -5 11 -3 4 18 7 38 4 38 -1
0 -8 -6 -14 -14z"/>
<path d="M350 2531 c0 -6 4 -12 8 -15 5 -3 9 1 9 9 0 8 -4 15 -9 15 -4 0 -8
-4 -8 -9z"/>
<path d="M309 2383 c-2 -13 -6 -28 -9 -33 -8 -17 -4 -82 6 -91 9 -7 12 -5 9 8
-1 10 2 23 7 30 6 7 5 14 -2 18 -8 5 -6 13 6 26 16 17 16 19 0 25 -14 5 -15 9
-4 15 10 7 10 9 1 9 -7 0 -14 -3 -14 -7z m21 -27 c0 -2 -8 -10 -17 -17 -16
-13 -17 -12 -4 4 13 16 21 21 21 13z m-15 -45 c3 -5 2 -12 -3 -15 -5 -3 -9 1
-9 9 0 17 3 19 12 6z"/>
<path d="M276 2241 c-4 -5 -2 -12 4 -16 6 -4 7 -11 4 -17 -4 -7 -2 -8 4 -4 7
4 12 2 12 -5 0 -19 10 -5 15 21 2 12 2 20 -2 16 -3 -3 -12 -1 -19 5 -8 6 -14
6 -18 0z m25 -18 c13 -16 12 -17 -3 -4 -10 7 -18 15 -18 17 0 8 8 3 21 -13z"/>
<path d="M266 2153 c-6 -14 -5 -15 5 -6 7 7 10 15 7 18 -3 3 -9 -2 -12 -12z"/>
<path d="M3770 1561 c0 -6 4 -13 10 -16 6 -3 7 1 4 9 -7 18 -14 21 -14 7z"/>
<path d="M3715 1440 c2 -27 10 -33 12 -10 1 11 -2 22 -6 24 -4 3 -7 -4 -6 -14z"/>
<path d="M3711 1387 c-8 -10 -7 -14 2 -14 8 0 14 6 14 14 0 7 -1 13 -2 13 -2
0 -8 -6 -14 -13z"/>
<path d="M3673 1383 c4 -3 1 -13 -6 -22 -11 -14 -10 -14 5 -2 16 12 16 31 1
31 -4 0 -3 -3 0 -7z"/>
<path d="M3650 1337 c0 -2 6 -10 14 -16 11 -9 16 -9 22 1 4 7 4 10 -1 6 -4 -4
-14 -3 -22 3 -7 6 -13 9 -13 6z"/>
<path d="M3588 1323 c7 -3 16 -2 19 1 4 3 -2 6 -13 5 -11 0 -14 -3 -6 -6z"/>
<path d="M3629 1317 c6 -8 9 -16 6 -19 -3 -2 2 -5 10 -5 13 0 13 3 -2 19 -19
21 -31 25 -14 5z"/>
<path d="M3673 1285 c0 -8 4 -12 9 -9 5 3 6 10 3 15 -9 13 -12 11 -12 -6z"/>
<path d="M3596 1258 c3 -5 10 -6 15 -3 13 9 11 12 -6 12 -8 0 -12 -4 -9 -9z"/>
<path d="M3559 1223 c0 -5 -2 -16 -4 -25 -2 -10 2 -21 7 -25 7 -4 8 -1 3 7 -6
10 -3 12 11 7 17 -6 17 -6 3 5 -9 7 -14 19 -12 26 3 6 2 12 -1 12 -3 0 -6 -3
-7 -7z"/>
<path d="M3645 1199 c-4 -6 -5 -12 -2 -15 2 -3 7 2 10 11 7 17 1 20 -8 4z"/>
<path d="M3530 1160 c0 -5 5 -10 10 -10 6 0 10 5 10 10 0 6 -4 10 -10 10 -5 0
-10 -4 -10 -10z"/>
<path d="M3587 1159 c7 -7 15 -10 18 -7 3 3 -2 9 -12 12 -14 6 -15 5 -6 -5z"/>
<path d="M3573 1143 c4 -6 3 -13 -2 -15 -5 -1 -3 -9 5 -16 12 -11 13 -9 11 7
-2 11 -7 24 -12 28 -4 5 -5 3 -2 -4z"/>
<path d="M3485 1120 c-3 -6 1 -7 9 -4 18 7 21 14 7 14 -6 0 -13 -4 -16 -10z"/>
<path d="M3506 1107 c-15 -11 -16 -16 -6 -22 9 -6 11 -4 5 5 -6 10 -3 12 13 8
12 -4 25 -1 29 4 3 6 1 8 -5 4 -5 -3 -12 -1 -14 4 -2 7 -10 6 -22 -3z"/>
<path d="M3465 1081 c-3 -11 -12 -18 -20 -15 -17 7 -29 -12 -14 -22 8 -5 9 -3
4 6 -6 10 -4 12 9 7 10 -4 19 -1 22 8 4 8 10 12 15 9 5 -3 6 2 3 10 -8 21 -11
20 -19 -3z"/>
<path d="M3550 1080 c0 -5 7 -7 15 -4 8 4 15 8 15 10 0 2 -7 4 -15 4 -8 0 -15
-4 -15 -10z"/>
<path d="M3510 1060 c0 -5 5 -12 10 -15 6 -3 10 -1 10 5 0 6 6 8 13 4 6 -4 8
-3 4 1 -10 12 -37 15 -37 5z"/>
<path d="M3451 1033 c-1 -17 16 -25 25 -12 4 7 3 9 -4 5 -5 -3 -13 0 -15 6 -4
9 -6 10 -6 1z"/>
<path d="M3430 1021 c0 -6 4 -13 10 -16 6 -3 7 1 4 9 -7 18 -14 21 -14 7z"/>
<path d="M3356 977 c-25 -26 -26 -31 -12 -39 11 -6 15 -17 11 -31 -5 -20 -5
-20 6 -4 8 14 8 22 0 30 -6 6 -11 18 -11 27 1 12 4 11 17 -5 14 -18 15 -18 9
-1 -3 10 -1 25 5 33 23 27 3 20 -25 -10z"/>
<path d="M3465 997 c-14 -11 -15 -16 -5 -22 9 -5 11 -4 6 3 -4 7 -1 12 8 12 9
0 16 5 16 10 0 13 -3 13 -25 -3z"/>
<path d="M3395 940 c3 -6 1 -10 -6 -10 -7 0 -10 -3 -6 -6 3 -3 13 -2 22 4 16
8 16 9 1 15 -10 4 -15 3 -11 -3z"/>
<path d="M3370 887 c-10 -19 -9 -20 2 -6 7 9 19 14 26 12 17 -6 15 4 -3 11 -9
3 -19 -3 -25 -17z"/>
<path d="M3308 856 c-22 -16 -22 -22 -4 -29 11 -4 13 -1 9 10 -5 13 -3 14 18
4 21 -11 22 -10 7 2 -10 8 -15 17 -11 20 11 12 -1 7 -19 -7z"/>
<path d="M258 2006 c3 -6 8 -20 9 -30 2 -11 9 -26 16 -35 10 -12 9 -14 -3 -9
-13 5 -16 -3 -15 -43 0 -26 5 -52 10 -56 4 -4 5 -2 1 5 -6 11 4 16 26 13 10
-1 3 28 -9 40 -14 14 -5 41 11 32 6 -3 3 3 -7 15 -12 12 -16 26 -11 34 16 25
11 44 -12 44 -13 0 -20 -4 -16 -10z m33 -129 c-1 -12 -15 -9 -19 4 -3 6 1 10
8 8 6 -3 11 -8 11 -12z"/>
<path d="M300 1680 c-8 -5 -10 -10 -5 -10 6 0 17 5 25 10 8 5 11 10 5 10 -5 0
-17 -5 -25 -10z"/>
<path d="M296 1652 c-3 -6 1 -15 9 -22 11 -9 12 -16 5 -25 -6 -8 -6 -16 3 -26
6 -8 11 -12 10 -10 -2 2 2 10 8 18 8 9 8 17 0 26 -7 9 -7 17 -1 25 6 7 7 10 4
7 -4 -3 -13 0 -20 6 -7 6 -14 6 -18 1z m34 -52 c0 -5 -5 -10 -11 -10 -5 0 -7
5 -4 10 3 6 8 10 11 10 2 0 4 -4 4 -10z"/>
<path d="M350 1520 c0 -5 5 -10 11 -10 5 0 7 5 4 10 -3 6 -8 10 -11 10 -2 0
-4 -4 -4 -10z"/>
<path d="M3596 1682 c-3 -5 1 -9 9 -9 8 0 12 4 9 9 -3 4 -7 8 -9 8 -2 0 -6 -4
-9 -8z"/>
<path d="M3591 1602 c-1 -15 -5 -21 -13 -16 -7 5 -8 3 -3 -5 10 -18 28 2 22
25 -4 15 -5 14 -6 -4z"/>
<path d="M3543 1566 c0 -7 6 -13 14 -13 7 0 13 4 13 8 0 4 -6 9 -13 12 -8 3
-14 0 -14 -7z"/>
<path d="M3537 1484 c2 -7 11 -10 19 -7 19 7 18 10 -5 16 -13 3 -18 1 -14 -9z"/>
<path d="M3475 1438 c1 -24 -1 -48 -6 -53 -5 -7 -1 -11 11 -11 10 0 16 4 13 9
-3 5 -7 27 -8 48 -1 22 -5 42 -8 45 -3 3 -4 -14 -2 -38z"/>
<path d="M3514 1465 c1 -8 8 -21 16 -28 12 -10 12 -9 2 4 -6 9 -9 18 -6 21 3
3 1 9 -4 12 -6 3 -9 -1 -8 -9z"/>
<path d="M3508 1418 c5 -5 16 -8 23 -6 8 3 3 7 -10 11 -17 4 -21 3 -13 -5z"/>
<path d="M3433 1403 c4 -6 2 -13 -5 -15 -8 -3 -6 -6 4 -10 17 -7 19 15 3 29
-4 4 -5 3 -2 -4z"/>
<path d="M3390 1341 c0 -6 4 -13 10 -16 6 -3 7 1 4 9 -7 18 -14 21 -14 7z"/>
<path d="M3480 1330 c-6 -11 -7 -20 -2 -20 6 0 12 9 15 20 3 11 3 20 1 20 -2
0 -8 -9 -14 -20z"/>
<path d="M3359 1295 c-1 -3 -2 -11 -3 -17 -1 -7 -8 -11 -16 -10 -8 2 -11 0 -7
-4 17 -17 33 -11 33 12 0 22 -4 32 -7 19z"/>
<path d="M3393 1272 c-8 -14 -8 -19 1 -19 7 0 13 9 13 19 1 10 1 18 0 18 -1 0
-7 -8 -14 -18z"/>
<path d="M3317 1193 c-10 -9 -9 -23 1 -23 5 0 9 7 9 15 0 17 -1 18 -10 8z"/>
<path d="M3370 1180 c0 -5 5 -10 11 -10 5 0 7 5 4 10 -3 6 -8 10 -11 10 -2 0
-4 -4 -4 -10z"/>
<path d="M3270 1149 c0 -5 -6 -7 -12 -3 -7 4 -9 3 -5 -1 13 -15 36 -14 30 1
-6 17 -13 18 -13 3z"/>
<path d="M3228 1103 c6 -2 18 -2 25 0 6 3 1 5 -13 5 -14 0 -19 -2 -12 -5z"/>
<path d="M3221 1078 c-1 -12 -7 -16 -18 -12 -15 5 -16 4 -3 -5 17 -12 35 1 27
21 -4 9 -6 8 -6 -4z"/>
<path d="M3250 1076 c0 -23 16 -27 31 -8 13 16 13 16 -5 2 -18 -14 -19 -13
-13 3 3 9 2 17 -3 17 -6 0 -10 -6 -10 -14z"/>
<path d="M3185 1030 c-4 -11 -10 -18 -15 -15 -5 3 -14 -3 -20 -14 -7 -15 -7
-22 2 -27 7 -4 10 -4 7 0 -8 9 33 54 44 49 10 -6 9 15 -2 22 -5 3 -12 -4 -16
-15z"/>
<path d="M3235 1040 c3 -5 8 -10 11 -10 2 0 4 5 4 10 0 6 -5 10 -11 10 -5 0
-7 -4 -4 -10z"/>
<path d="M3126 967 c3 -10 9 -15 12 -12 3 3 0 11 -7 18 -10 9 -11 8 -5 -6z"/>
<path d="M3089 933 c-13 -16 -12 -17 4 -4 16 13 21 21 13 21 -2 0 -10 -8 -17
-17z"/>
<path d="M310 1760 c0 -5 5 -10 11 -10 5 0 7 5 4 10 -3 6 -8 10 -11 10 -2 0
-4 -4 -4 -10z"/>
<path d="M403 1353 c-16 -6 -17 -24 -2 -20 17 3 22 -19 7 -34 -8 -8 -13 -21
-13 -29 0 -8 -3 -18 -9 -21 -5 -4 1 -12 13 -18 12 -7 19 -17 15 -22 -3 -6 2
-19 11 -29 11 -12 13 -20 5 -25 -5 -3 -7 -12 -3 -18 5 -7 8 -20 8 -29 0 -10 3
-18 8 -18 11 0 72 -72 69 -83 -1 -4 2 -6 8 -2 5 3 10 1 10 -4 0 -6 -6 -11 -12
-11 -7 0 -5 -5 5 -11 9 -5 21 -8 26 -4 15 8 25 -15 12 -28 -16 -16 -13 -32 3
-18 11 10 17 8 26 -6 8 -13 13 -14 16 -5 6 13 25 17 23 5 -3 -20 2 -33 12 -33
8 0 8 5 -1 15 -10 12 -10 15 1 15 8 1 1 8 -14 16 -15 8 -25 19 -22 24 4 6 2
10 -3 10 -5 0 -9 7 -10 15 -1 8 -3 21 -4 29 -1 8 -4 15 -7 14 -23 -2 -33 3
-24 15 5 6 9 17 8 22 -1 16 -78 115 -89 115 -5 0 -1 7 10 16 10 8 13 13 6 9
-7 -4 -18 -2 -25 3 -7 6 -16 11 -22 11 -12 1 -14 24 -2 32 5 3 1 9 -8 12 -10
5 -14 3 -9 -5 4 -6 3 -8 -4 -5 -10 7 -11 32 0 42 3 4 9 1 14 -6 5 -8 3 -10 -7
-4 -11 6 -12 5 -2 -5 21 -22 26 -4 8 29 -9 18 -13 36 -10 41 7 11 -2 12 -22 3z
m22 -113 c3 -5 2 -10 -4 -10 -5 0 -13 5 -16 10 -3 6 -2 10 4 10 5 0 13 -4 16
-10z m40 -49 c0 -6 5 -15 10 -19 18 -12 79 -95 81 -109 1 -7 -2 -16 -8 -19 -7
-4 -2 -13 11 -23 12 -9 23 -27 26 -40 2 -13 9 -29 16 -37 7 -9 8 -14 1 -14
-11 0 -28 38 -24 54 2 5 -7 6 -19 3 -11 -3 -18 -3 -15 1 4 3 -13 25 -36 49
-23 24 -38 43 -34 43 5 0 3 7 -4 15 -11 13 -15 13 -22 3 -6 -9 -7 -6 -3 9 3
12 1 24 -5 28 -8 5 -8 11 0 20 7 9 6 16 -5 25 -8 7 -13 16 -10 20 8 12 40 5
40 -9z"/>
<path d="M446 1179 c11 -12 12 -19 4 -24 -7 -5 -2 -18 15 -41 14 -19 23 -34
18 -34 -4 0 11 -18 32 -40 21 -22 44 -40 49 -40 6 0 0 7 -12 16 -15 10 -20 20
-14 27 14 20 9 33 -38 88 -25 30 -44 56 -43 60 1 3 -5 6 -13 6 -12 0 -12 -3 2
-18z m89 -119 c-2 -8 -4 -17 -4 -19 -1 -2 -10 4 -21 14 -11 10 -18 20 -15 23
2 2 -7 19 -20 37 -14 17 -22 35 -18 39 11 10 81 -75 78 -94z"/>
<path d="M483 1119 c15 -20 24 -39 21 -41 -2 -3 2 -11 10 -17 27 -23 12 14
-23 55 l-33 39 25 -36z"/>
<path d="M635 860 c-3 -5 -1 -10 4 -10 6 0 11 5 11 10 0 6 -2 10 -4 10 -3 0
-8 -4 -11 -10z"/>
<path d="M3239 821 c8 -5 10 -14 6 -22 -6 -11 -5 -11 5 -2 14 12 6 33 -13 33
-8 0 -7 -3 2 -9z"/>
<path d="M3175 760 c3 -4 16 -7 30 -7 13 0 23 3 20 7 -3 4 -16 8 -30 8 -13 0
-23 -4 -20 -8z"/>
<path d="M3165 730 c-3 -6 1 -7 9 -4 18 7 21 14 7 14 -6 0 -13 -4 -16 -10z"/>
<path d="M3072 709 c-7 -11 -17 -17 -22 -14 -6 3 -7 -1 -4 -9 5 -13 10 -11 26
10 11 14 18 27 16 29 -2 2 -9 -5 -16 -16z"/>
<path d="M710 664 c6 -6 7 -13 4 -17 -3 -3 6 -13 20 -22 14 -10 24 -21 21 -25
-3 -5 5 -16 17 -24 29 -20 48 -21 22 -1 -19 15 -19 15 1 9 16 -5 17 -4 5 5
-12 9 -13 12 -1 20 9 6 10 11 2 15 -6 4 -11 2 -11 -5 0 -8 -4 -8 -15 1 -9 7
-13 20 -10 29 4 12 2 12 -9 -2 -12 -16 -14 -16 -20 -1 -3 9 -4 19 -2 23 3 4
-4 7 -14 7 -13 0 -16 -4 -10 -12z m59 -48 c9 -11 9 -16 -1 -22 -7 -4 -10 -4
-6 1 4 4 3 14 -3 22 -6 7 -9 13 -6 13 2 0 10 -6 16 -14z"/>
<path d="M880 515 c-8 -9 -8 -15 -2 -15 12 0 26 19 19 26 -2 2 -10 -2 -17 -11z"/>
<path d="M2695 641 c-3 -5 -2 -12 3 -15 5 -3 9 1 9 9 0 17 -3 19 -12 6z"/>
<path d="M2640 620 c-12 -7 -10 -9 7 -7 12 0 19 5 17 9 -6 10 -6 10 -24 -2z"/>
<path d="M2156 591 c-4 -5 -2 -12 3 -15 5 -4 12 -2 15 3 4 5 2 12 -3 15 -5 4
-12 2 -15 -3z"/>
<path d="M1170 403 c0 -17 16 -31 27 -25 9 6 6 11 -7 20 -11 7 -20 9 -20 5z"/>
<path d="M1448 254 c-31 -16 -28 -36 8 -53 30 -13 45 -14 24 -1 -13 8 -13 10
3 11 26 2 31 4 45 12 17 11 6 26 -16 23 -9 -2 -21 3 -27 10 -8 10 -15 10 -37
-2z m37 -15 c6 -4 18 -5 28 -4 9 2 15 0 12 -5 -3 -4 -21 -6 -40 -4 -26 2 -34
0 -28 -9 4 -7 0 -7 -10 2 -18 15 -23 26 -7 16 6 -3 10 -2 10 4 0 10 18 10 35
0z"/>
<path d="M1565 210 c-4 -6 -12 -7 -18 -4 -7 4 -9 3 -4 -1 4 -5 -1 -18 -10 -29
-18 -21 -18 -21 4 -3 12 11 26 17 30 14 5 -3 9 3 9 14 0 22 -2 23 -11 9z"/>
<path d="M1616 161 c-3 -5 1 -11 9 -14 9 -4 12 -1 8 9 -6 16 -10 17 -17 5z"/>
<path d="M1675 170 c3 -5 8 -10 11 -10 2 0 4 5 4 10 0 6 -5 10 -11 10 -5 0 -7
-4 -4 -10z"/>
<path d="M2680 495 c-18 -21 -3 -32 16 -13 10 9 12 18 6 22 -5 3 -15 -1 -22
-9z"/>
<path d="M2579 476 c-1 -3 -2 -9 -3 -13 -4 -23 -18 -33 -31 -23 -9 7 -16 6
-24 -3 -9 -11 -6 -14 14 -13 30 2 73 40 56 50 -6 4 -12 5 -12 2z"/>
<path d="M2680 441 c-8 -6 -17 -8 -20 -6 -3 2 -6 -7 -6 -20 0 -24 11 -25 11
-2 0 7 7 12 16 11 9 -1 16 5 16 12 0 8 -1 14 -1 14 -1 0 -8 -4 -16 -9z"/>
<path d="M2413 397 c0 -18 33 -19 48 -1 7 9 8 14 1 14 -6 0 -12 -6 -15 -12 -3
-10 -7 -10 -19 -1 -12 10 -15 10 -15 0z"/>
<path d="M2593 355 c0 -8 4 -12 9 -9 4 3 8 9 8 15 0 5 -4 9 -8 9 -5 0 -9 -7
-9 -15z"/>
<path d="M2045 301 c-7 -12 14 -56 23 -47 3 4 0 12 -6 18 -17 17 -15 33 1 19
8 -6 16 -8 19 -5 3 2 8 -2 11 -11 4 -8 1 -15 -5 -15 -6 0 -9 -3 -5 -6 14 -14
27 7 16 27 -6 12 -13 18 -16 15 -4 -3 -12 -1 -19 5 -8 7 -14 7 -19 0z"/>
<path d="M2295 290 c-3 -5 -3 -14 0 -20 8 -13 35 -13 35 0 0 5 -7 7 -15 4 -8
-4 -15 -2 -15 4 0 6 6 13 13 15 9 4 9 6 0 6 -6 1 -15 -3 -18 -9z"/>
<path d="M2336 285 c4 -8 8 -15 10 -15 2 0 4 7 4 15 0 8 -4 15 -10 15 -5 0 -7
-7 -4 -15z"/>
<path d="M1860 275 c17 -20 30 -19 30 3 0 14 -2 15 -10 2 -6 -10 -10 -11 -10
-2 0 6 -5 12 -11 12 -8 0 -8 -5 1 -15z"/>
<path d="M1903 268 c-1 -11 5 -18 15 -18 15 0 15 2 2 10 -13 8 -12 10 3 10 9
0 17 4 17 8 0 17 -36 7 -37 -10z"/>
<path d="M2500 280 c-9 -6 -10 -10 -3 -10 6 0 15 5 18 10 8 12 4 12 -15 0z"/>
<path d="M1940 250 c0 -5 0 -13 1 -16 0 -4 -5 -11 -13 -16 -11 -8 -10 -9 1 -6
13 4 28 48 16 48 -3 0 -5 -4 -5 -10z"/>
<path d="M1861 241 c-12 -8 -9 -11 12 -16 14 -4 25 -12 24 -17 -1 -6 4 -12 11
-13 7 -2 8 -1 2 2 -5 2 -7 9 -4 15 3 5 -4 12 -16 15 -16 4 -18 8 -8 14 7 5 9
9 3 9 -5 0 -17 -4 -24 -9z"/>
<path d="M1970 240 c-8 -5 -10 -10 -5 -10 6 0 17 5 25 10 8 5 11 10 5 10 -5 0
-17 -5 -25 -10z"/>
<path d="M2030 239 c0 -5 5 -7 10 -4 6 3 10 8 10 11 0 2 -4 4 -10 4 -5 0 -10
-5 -10 -11z"/>
<path d="M2100 240 c-9 -6 -10 -10 -3 -10 6 0 15 5 18 10 8 12 4 12 -15 0z"/>
<path d="M2130 240 c0 -5 5 -10 10 -10 6 0 10 5 10 10 0 6 -4 10 -10 10 -5 0
-10 -4 -10 -10z"/>
<path d="M2230 243 c0 -5 5 -15 10 -23 7 -12 9 -10 7 8 -1 19 -17 33 -17 15z"/>
<path d="M2010 231 c0 -6 4 -13 10 -16 6 -3 7 1 4 9 -7 18 -14 21 -14 7z"/>
<path d="M2070 229 c0 -5 -6 -7 -12 -3 -7 4 -9 3 -5 -1 13 -15 36 -14 30 1 -6
17 -13 18 -13 3z"/>
<path d="M1730 216 c0 -2 7 -9 15 -16 13 -11 14 -10 9 4 -5 14 -24 23 -24 12z"/>
<path d="M2113 195 c0 -30 6 -28 12 4 2 11 0 21 -4 21 -5 0 -8 -11 -8 -25z"/>
<path d="M1871 193 c7 -12 15 -20 18 -17 3 2 -3 12 -13 22 -17 16 -18 16 -5
-5z"/>
<path d="M1941 200 c-9 -5 -4 -7 13 -7 29 0 32 2 13 10 -8 3 -20 2 -26 -3z"/>
<path d="M2007 190 c10 -11 19 -20 21 -20 1 0 -2 9 -8 20 -6 11 -15 20 -20 20
-6 0 -2 -9 7 -20z"/>
<path d="M2078 193 c7 -3 16 -2 19 1 4 3 -2 6 -13 5 -11 0 -14 -3 -6 -6z"/>
<path d="M2033 165 c-22 -25 -18 -36 5 -13 9 9 12 9 12 1 0 -7 -4 -15 -10 -18
-5 -3 -10 -11 -10 -18 0 -6 7 -2 15 10 8 12 12 29 8 39 -5 13 -3 15 7 9 9 -5
11 -4 6 3 -9 15 -7 16 -33 -13z"/>
<path d="M1920 175 c0 -5 5 -17 10 -25 5 -8 10 -10 10 -5 0 6 -5 17 -10 25 -5
8 -10 11 -10 5z"/>
<path d="M1760 160 c0 -5 5 -10 11 -10 5 0 7 5 4 10 -3 6 -8 10 -11 10 -2 0
-4 -4 -4 -10z"/>
<path d="M1900 160 c1 -8 7 -24 15 -34 19 -25 19 -16 0 20 -8 16 -15 22 -15
14z"/>
<path d="M1990 155 c0 -8 2 -15 4 -15 2 0 6 7 10 15 3 8 1 15 -4 15 -6 0 -10
-7 -10 -15z"/>
<path d="M1954 142 c4 -7 2 -12 -3 -12 -6 0 -11 -5 -11 -11 0 -8 5 -8 15 1 8
7 15 8 15 3 0 -5 11 -9 25 -9 14 0 25 4 25 9 0 5 -6 7 -14 4 -7 -3 -24 2 -37
10 -12 9 -19 11 -15 5z"/>
</g>
</svg>
